<svg id="Layer_1" data-name="Layer 1" xmlns="http://www.w3.org/2000/svg" viewBox="0 0 800 800"><defs><style>.cls-1{fill:#4f4f4f;}.cls-2{fill:#ef4323;}.cls-3{fill:#ef4523;}.cls-4{fill:#515151;}.cls-5{fill:#606161;}.cls-6{fill:#fff;}</style></defs><title>Icons_</title><g id="NP96mE.tif"><path class="cls-1" d="M504.72,152c5.2,7.89,12.23,14.19,18.48,21.16C544,196.32,565.07,219.25,586,242.28c-2.74,2.8,3,3.07,1.65,5.22-3.17,5.1.61,10,.23,14.85-.3,3.71,4.12,7.82-.78,11.15-21.33,0-42.68-.59-64,.18-17.92.65-31.52-12.31-31.48-31.42,0-22.65-.16-45.31.11-68,.06-4.76-1.32-5.72-5.84-5.71-55.65.17-111.31.3-166.95-.08-9.25-.06-21.23,8.73-21.5,20.89-.14,6.31-.15,12.62-.18,18.93,0,6.13,0,12.25,0,18.59-1.63-4.2-5.06-2.32-7.62-2.39-8.85-.23-8.85-.09-8.85-8.85V191.17c0-19.66,12.34-34.43,31.63-37.86,1.11-.19,2.23-.26,2.9-1.34Zm4,30.21c0,10.51,0,19.38,0,28.25,0,11.69-.18,23.39.17,35.08.22,7.7,4.36,11.25,12,11.25q25.88,0,51.75,0c1.32,0,2.94.81,3.89-.56Z"/><path class="cls-2" d="M467.22,604.54Q448.88,581,430.54,557.4c-6.31-8.12-12.52-16.33-18.93-24.38-2-2.45-3.61-4.89-2.35-8s4.28-2.94,7.11-2.91c6.68.07,13.37-.21,20,.1,5.28.24,7.17-1.73,7.14-7.07-.18-30.45-.09-60.9-.08-91.35,0-8.25.44-8.68,8.94-8.68h65.11c7.86,0,9.48,1.58,9.48,9.27,0,30.45.13,60.9-.11,91.35,0,5.24,1.49,6.81,6.62,6.51,7.21-.42,14.46-.08,21.7-.11,2.31,0,4.21.12,5.39,2.75a5.33,5.33,0,0,1-.82,6.12l-63.53,82.27c-.1.14-.33.18-.49.26-5.23-2.45-10.83-4.36-15.59-7.53C475.77,603.07,471.7,603.46,467.22,604.54Z"/><path class="cls-3" d="M351.56,333.69c-35.27,0-70.54-.09-105.81.1-4.44,0-6-.84-5.94-5.67.25-27.5.2-55,0-82.49,0-4.28,1-5.63,5.47-5.62q106.35.19,212.72,0c3.88,0,5,1.06,5,5q-.27,42.63-.05,85.26c0,4.65-2.74,3.46-5,3.47q-48.74.06-97.45,0h-8.91Zm-23.87-46.5v26.17c0,1.84-.31,3.51,2.56,3.81,11.92,1.25,23.72,1.5,35-3.51S382.38,296.58,381,281.5c-1.09-11.92-8.45-20.56-20.27-23.63-9.88-2.56-19.89-1.41-29.88-.91-3.24.16-3.2,2.24-3.18,4.62C327.73,270.12,327.7,278.65,327.69,287.19Zm-52.05.08q0,10.32,0,20.62c0,9.75,0,9.63,10,9.29,2.9-.1,3.92-1,3.79-3.86-.19-4.45.21-8.93-.11-13.36-.26-3.6,1.09-4.55,4.43-4.19a28.47,28.47,0,0,0,9.91-1.06c10.29-2.57,16-10.28,15.3-20.86-.59-9.41-7.05-15.72-17.39-17.07-7.23-.94-14.44-.24-21.67.06-3.32.14-4.45,1.47-4.37,4.81C275.78,270.18,275.65,278.73,275.64,287.27ZM390.06,287c0,8.72.08,17.44,0,26.16,0,2.7.5,3.88,3.6,4,10.18.35,10.18.51,10.17-9.59,0-14.9,0-15.18,15.25-14.56,5.5.22,7-1.25,6.68-6.64-.22-3.91-1.21-5.3-5.08-4.85a67.26,67.26,0,0,1-7.78.07c-9.53,0-9.38,0-9.15-9.77.08-3.28,1.25-4.07,4.26-4,5,.21,10-.26,15,.14,5.19.42,3.9-3,3.94-5.75s1-5.88-4.1-5.66c-9.44.41-18.91.3-28.35,0-3.89-.12-4.55,1.37-4.47,4.79C390.21,270,390.07,278.5,390.06,287Z"/><path class="cls-4" d="M439.84,589h-6.06q-57.07,0-114.16,0c-22.07,0-38.77-16.83-38.77-39q0-99.21-.14-198.42c0-4.67,1.13-5.89,5.76-5.74,10.88.35,10.88.09,10.88,11.25q0,94.47,0,189c0,13.83,4.22,20.85,14.7,25.29a15.81,15.81,0,0,0,6.44.95c34.52,0,69,.06,103.57-.07,3.68,0,6.14.83,8.2,4C432.89,580.39,436.13,584.15,439.84,589Z"/><path class="cls-1" d="M596.17,255.54c6,2.36,8.28,6.55,8.26,13.21q-.3,138.31-.15,276.64c0,13.86-3.8,25.81-14.6,35-1.83,1.56-3.54,3.21-5.91,3.9,2.19-5.52,3.66-11.37,5.83-16.77,3-7.49,1-14.43.64-21.62-.07-1.31-1.46-1.45-2.55-1.64-.59-13.3-.65-26.61,0-39.91,3-.17,2.78-2.36,2.81-4.44,0-3.83-.45-7.8.36-11.48,2.5-11.41,1.7-23,2.76-34.55,1.85-20,3.16-40.11,3.37-60.19.3-27.79,3.14-55.49,2.57-83.32-.31-14.85-1.29-29.5-4.45-44C594.32,262.75,592.91,258.86,596.17,255.54Z"/><path class="cls-4" d="M596.17,255.54c-3.26,3.32-1.85,7.21-1.06,10.85,3.16,14.51,4.14,29.16,4.45,44,.57,27.83-2.27,55.53-2.57,83.32-.21,20.08-1.52,40.19-3.37,60.19-1.06,11.5-.26,23.14-2.76,34.55-.81,3.68-.31,7.65-.36,11.48,0,2.08.2,4.27-2.81,4.44q-.15-42.45-.3-84.91c0-3.69.19-7.38.29-11.07,4.05-.12,2.65-3.22,2.75-5.3s.86-4.76-2.76-4.74l-.06-3.34c1.93.07,2.89-.71,2.9-2.78s-1-2.87-2.88-2.8c0-.74,0-1.48,0-2.22,4.82-1.47,3.76-5.75,3.89-9,.58-15.33.83-30.67,1.2-46,0-.74,0-1.48.09-2.22a159.3,159.3,0,0,0-2.26-52.8c-.39-1.87-1.13-2.57-2.86-2.55-.18-.37-.36-.74-.55-1.11,4.9-3.33.48-7.44.78-11.15.38-4.89-3.4-9.75-.23-14.85,1.33-2.15-4.39-2.42-1.65-5.22,2.86,3.09,6.34,5.68,7.93,9.8-1.51,2.61-.9,3.86,2.23,3.48Z"/><path class="cls-1" d="M587.69,544.29c1.09.19,2.48.33,2.55,1.64.34,7.19,2.37,14.13-.64,21.62-2.17,5.4-3.64,11.25-5.83,16.77A34.11,34.11,0,0,1,566.49,589c-11.79,0-23.58,0-36.32,0,4.15-5.48,7.8-10.21,11.34-15,1.32-1.8,3.06-1.72,4.93-1.71,5.92,0,11.91-.54,17.77.12,12.86,1.45,23.59-11.33,23.14-22C587.27,548.36,587.57,546.32,587.69,544.29Z"/><path class="cls-1" d="M587.68,274.61c1.73,0,2.47.68,2.86,2.55A159.3,159.3,0,0,1,592.8,330c-.09.74-.07,1.48-.09,2.22-.37,15.34-.62,30.68-1.2,46-.13,3.28.93,7.56-3.89,9-.08-28.12-.21-56.23-.24-84.34C587.36,293.45,587.57,284,587.68,274.61Z"/><path class="cls-3" d="M467.22,604.54c4.48-1.08,8.55-1.47,12.94,1.44,4.76,3.17,10.36,5.08,15.59,7.53-2.16,2.73-4.13,5.63-6.51,8.15-3.73,4-6,3.85-9.44-.49C475.47,615.73,471.4,610.09,467.22,604.54Z"/><path class="cls-1" d="M587.67,398.36c3.62,0,2.86,2.71,2.76,4.74s1.3,5.18-2.75,5.3C587.68,405.05,587.67,401.71,587.67,398.36Z"/><path class="cls-1" d="M587.63,389.44c1.93-.07,2.88.73,2.88,2.8s-1,2.85-2.9,2.78Z"/><path class="cls-5" d="M596.19,255.56c-3.13.38-3.74-.87-2.23-3.48A3.42,3.42,0,0,1,596.19,255.56Z"/><path class="cls-6" d="M508.75,182.18l67.78,74c-.95,1.37-2.57.56-3.89.56q-25.87.11-51.75,0c-7.61,0-11.75-3.55-12-11.25-.35-11.69-.15-23.39-.17-35.08C508.74,201.56,508.75,192.69,508.75,182.18Z"/><path class="cls-6" d="M327.69,287.19c0-8.54,0-17.07,0-25.61,0-2.38-.06-4.46,3.18-4.62,10-.5,20-1.65,29.88.91,11.82,3.07,19.18,11.71,20.27,23.63,1.38,15.08-4.43,27.09-15.79,32.16s-23,4.76-35,3.51c-2.87-.3-2.56-2-2.56-3.81Zm13.92-.39c0,5.56.11,11.13,0,16.69-.07,2.65.89,3.42,3.5,3.59,13.95.88,22.44-8.19,21.5-23.18-.74-11.69-10.51-19.18-22-17-2.42.45-3,1.7-2.95,3.81C341.65,276,341.62,281.42,341.61,286.8Z"/><path class="cls-6" d="M275.65,287.27c0-8.54.13-17.09-.07-25.62-.08-3.34,1.05-4.67,4.37-4.81,7.23-.3,14.44-1,21.67-.06,10.34,1.35,16.8,7.66,17.39,17.07.65,10.58-5,18.29-15.3,20.86a28.47,28.47,0,0,1-9.91,1.06c-3.34-.36-4.69.59-4.43,4.19.32,4.43-.08,8.91.11,13.36.13,2.9-.89,3.76-3.79,3.86-10.05.34-10,.46-10-9.29Q275.64,297.58,275.65,287.27Zm13.8-11.54c0,2,.1,4.06,0,6.08-.15,2.33.77,3.42,3.12,3.39,3.34-.05,6.71-.07,9.45-2.3,3.81-3.1,4.43-7.12,2.54-11.43-1.64-3.76-7.47-5.9-12.57-4.62-4.69,1.18-1.7,5.16-2.51,7.78A3.69,3.69,0,0,0,289.45,275.73Z"/><path class="cls-6" d="M390.07,287c0-8.54.14-17.08-.07-25.61-.08-3.42.58-4.91,4.47-4.79,9.44.29,18.91.4,28.35,0,5.07-.22,4.14,2.84,4.1,5.66s1.25,6.17-3.94,5.75c-5-.4-10,.07-15-.14-3-.12-4.18.67-4.26,4-.23,9.76-.38,9.76,9.15,9.77a67.26,67.26,0,0,0,7.78-.07c3.87-.45,4.86.94,5.08,4.85.31,5.39-1.18,6.86-6.68,6.64-15.24-.62-15.25-.34-15.25,14.56,0,10.1,0,9.94-10.17,9.59-3.1-.11-3.64-1.29-3.6-4C390.14,304.48,390.06,295.76,390.07,287Z"/><path class="cls-3" d="M341.62,286.8c0-5.38,0-10.76,0-16.14,0-2.11.53-3.36,2.95-3.81,11.51-2.13,21.28,5.36,22,17,.94,15-7.55,24.06-21.5,23.18-2.61-.17-3.57-.94-3.5-3.59C341.72,297.93,341.61,292.36,341.62,286.8Z"/><path class="cls-3" d="M289.44,275.73a4,4,0,0,1,0-1.1c.81-2.62-2.18-6.6,2.51-7.78,5.1-1.28,10.93.86,12.57,4.62,1.89,4.31,1.27,8.33-2.54,11.43-2.74,2.23-6.11,2.25-9.45,2.3-2.35,0-3.27-1.06-3.12-3.39C289.55,279.79,289.45,277.76,289.44,275.73Z"/></g></svg>