<svg id="Layer_1" data-name="Layer 1" xmlns="http://www.w3.org/2000/svg" viewBox="0 0 1366 177.77"><defs><style>.cls-1{isolation:isolate;}.cls-2{fill:#f2b71a;}.cls-3{fill:#262626;}.cls-4{fill:#1a1a1a;}.cls-5,.cls-8{fill:none;stroke-miterlimit:10;}.cls-5{stroke:#f2b71a;stroke-width:2.5px;}.cls-6{fill:#fff;}.cls-7{fill:#f0b61b;}.cls-8{stroke:#000;stroke-width:0.94px;}</style></defs><title>Mujib_Birthday Wishing Page_1_Countdownfinal</title><g class="cls-1"><path class="cls-2" d="M213,77.16h8.48l5.86,16.61h.07l5.9-16.61h8.45v25.45h-5.61V83.09h-.07l-6.69,19.52h-4.28l-6.43-19.52h-.07v19.52H213Z"/><path class="cls-2" d="M268.37,92.8c0,6-3.67,10.46-10.72,10.46S246.9,98.8,246.9,92.8V77.16h5.61V92.58a5.14,5.14,0,1,0,10.25,0V77.16h5.61Z"/><path class="cls-2" d="M286.7,94.09c0,4.71-1.22,9.17-8.12,9.17-4,0-7-1.87-7.8-5.93l5.14-1.26a2.61,2.61,0,0,0,2.51,2.23c2.63,0,2.66-2.92,2.66-4.82V77.16h5.61Z"/><path class="cls-2" d="M291.45,77.16h5.6v25.45h-5.6Z"/><path class="cls-2" d="M302.16,77.16h9.49c4.46,0,9.31.93,9.31,6.47a5.73,5.73,0,0,1-4.38,5.61v.07a6.1,6.1,0,0,1,5.57,6.22c0,5.32-5,7.08-9.57,7.08H302.16Zm5.61,10.17h4.06c1.73,0,3.52-.72,3.52-2.77s-2-2.66-3.77-2.66h-3.81Zm0,10.54h5c1.76,0,3.74-.76,3.74-3,0-2.41-2.7-2.8-4.53-2.8h-4.24Z"/><path class="cls-2" d="M343.86,83.2l-5.1,4.49-3.06-3.52,8.3-7h5v25.45h-5.18Z"/><path class="cls-2" d="M365.43,76.73c7.55,0,9.45,7.11,9.45,13.15S373,103,365.43,103,356,95.92,356,89.88,357.88,76.73,365.43,76.73Zm0,21.35c3.88,0,4.06-5.54,4.06-8.2s-.18-8.19-4.06-8.19-4.06,5.53-4.06,8.19S361.55,98.08,365.43,98.08Z"/><path class="cls-2" d="M386.71,76.73c7.55,0,9.46,7.11,9.46,13.15S394.26,103,386.71,103s-9.45-7.12-9.45-13.16S379.16,76.73,386.71,76.73Zm0,21.35c3.88,0,4.06-5.54,4.06-8.2s-.18-8.19-4.06-8.19-4.06,5.53-4.06,8.19S382.83,98.08,386.71,98.08Z"/></g><g class="cls-1"><g class="cls-1"><path class="cls-3" d="M257.06,118.55a4.36,4.36,0,0,0-3.55-1.72,5.64,5.64,0,0,0-5.41,5.89c0,3.28,2.23,5.89,5.41,5.89a5,5,0,0,0,4.11-2l1.26,1.07a6.29,6.29,0,0,1-5.37,2.48,7.46,7.46,0,0,1,0-14.91,6.14,6.14,0,0,1,5,2.23Z"/></g><g class="cls-1"><path class="cls-3" d="M257.5,122.72a7.42,7.42,0,1,1,7.41,7.45A7.21,7.21,0,0,1,257.5,122.72Zm13,0a5.62,5.62,0,1,0-5.61,5.89A5.6,5.6,0,0,0,270.52,122.72Z"/><path class="cls-3" d="M275,115.63h2.5l4.81,11.11h0l4.85-11.11h2.44v14.18H288v-11.9h0l-5.09,11.9h-1l-5.09-11.9h0v11.9H275Z"/><path class="cls-3" d="M293.2,115.63h1.68v14.18H293.2Z"/><path class="cls-3" d="M298.4,115.63h2.13l8.21,11.78h0V115.63h1.68v14.18h-2.12L300.13,118h0v11.78H298.4Z"/><path class="cls-3" d="M326.05,128.85a11,11,0,0,1-5.31,1.32,7.18,7.18,0,0,1-7.58-7.45,7.32,7.32,0,0,1,7.64-7.46,6.84,6.84,0,0,1,5,1.87l-1.27,1.32a5.32,5.32,0,0,0-3.86-1.62,5.89,5.89,0,0,0,.16,11.78,8.33,8.33,0,0,0,3.52-.82v-4.35H321.1v-1.56h4.95Z"/><path class="cls-3" d="M341.87,118.13a2.94,2.94,0,0,0-2.58-1.3c-1.49,0-3,.7-3,2.38,0,1.3.72,1.88,3,2.61s4.24,1.42,4.24,4.2-2.42,4.15-5,4.15a5.13,5.13,0,0,1-4.36-2l1.44-1.19a3.42,3.42,0,0,0,3,1.59c1.45,0,3.09-.84,3.09-2.47s-1.18-2-3.71-2.88c-2-.66-3.52-1.54-3.52-3.91,0-2.72,2.34-4.09,4.83-4.09a4.87,4.87,0,0,1,4,1.67Z"/><path class="cls-3" d="M345.45,122.72a7.42,7.42,0,1,1,7.42,7.45A7.21,7.21,0,0,1,345.45,122.72Zm13,0a5.62,5.62,0,1,0-5.61,5.89A5.61,5.61,0,0,0,358.48,122.72Z"/><path class="cls-3" d="M362.16,122.72a7.41,7.41,0,1,1,7.41,7.45A7.2,7.2,0,0,1,362.16,122.72Zm13,0a5.62,5.62,0,1,0-5.61,5.89A5.6,5.6,0,0,0,375.18,122.72Z"/><path class="cls-3" d="M379.68,115.63h2.13L390,127.41h0V115.63h1.69v14.18h-2.13L381.41,118h0v11.78h-1.69Z"/></g></g><g class="cls-1"><g class="cls-1"><path class="cls-4" d="M447.26,87h-3.69V85.62h9V87h-3.71v10.8h-1.59Z"/></g><g class="cls-1"><path class="cls-4" d="M460.46,93.33A4.27,4.27,0,0,1,456.12,98a4.16,4.16,0,0,1-4.18-4.49,4.26,4.26,0,0,1,4.33-4.6A4.11,4.11,0,0,1,460.46,93.33Zm-6.9.09c0,1.91,1.08,3.35,2.63,3.35s2.65-1.42,2.65-3.39c0-1.47-.74-3.33-2.61-3.33S453.56,91.78,453.56,93.42Z"/><path class="cls-4" d="M468.18,87V89h2.27v1.21h-2.27V95c0,1.08.31,1.69,1.19,1.69a3.12,3.12,0,0,0,.92-.1l.07,1.2A4.25,4.25,0,0,1,469,98a2.26,2.26,0,0,1-1.72-.67,3.41,3.41,0,0,1-.61-2.29V90.25h-1.35V89h1.35V87.42Z"/><path class="cls-4" d="M472.23,85h1.58v5.45h0A3,3,0,0,1,475,89.3a3.21,3.21,0,0,1,1.62-.43c1.17,0,3,.71,3,3.7v5.19h-1.59v-5c0-1.4-.52-2.57-2-2.57a2.31,2.31,0,0,0-2.13,1.57,2,2,0,0,0-.11.75v5.26h-1.58Z"/><path class="cls-4" d="M483.1,93.69a2.79,2.79,0,0,0,3,3,5.65,5.65,0,0,0,2.41-.45l.29,1.13a7.12,7.12,0,0,1-2.91.56,4.06,4.06,0,0,1-4.29-4.41c0-2.63,1.55-4.68,4.09-4.68,2.86,0,3.6,2.48,3.6,4.08a3.47,3.47,0,0,1-.06.74Zm4.65-1.13a2.25,2.25,0,0,0-2.2-2.56,2.6,2.6,0,0,0-2.43,2.56Z"/><path class="cls-4" d="M495.05,85h1.59V97.76h-1.59Z"/><path class="cls-4" d="M505.42,95.67a14.53,14.53,0,0,0,.13,2.09h-1.42l-.13-1.1H504a3.25,3.25,0,0,1-2.67,1.3,2.48,2.48,0,0,1-2.66-2.5c0-2.11,1.87-3.26,5.24-3.25V92a1.78,1.78,0,0,0-2-2,4.23,4.23,0,0,0-2.29.64l-.36-1.06a5.63,5.63,0,0,1,2.88-.75c2.67,0,3.31,1.81,3.31,3.54Zm-1.53-2.36c-1.73,0-3.69.27-3.69,2a1.39,1.39,0,0,0,1.48,1.51,2.2,2.2,0,0,0,2.14-1.46,1.58,1.58,0,0,0,.07-.5Z"/><path class="cls-4" d="M515.27,95.37c0,.91,0,1.71.07,2.39h-1.4l-.09-1.42h0A3.25,3.25,0,0,1,510.93,98c-1.37,0-3-.78-3-3.82V89h1.59v4.81c0,1.66.52,2.79,1.94,2.79a2.27,2.27,0,0,0,2.09-1.46,2.12,2.12,0,0,0,.14-.8V89h1.59Z"/><path class="cls-4" d="M517.9,91.4c0-.91,0-1.63-.08-2.36h1.41l.09,1.45h0a3.24,3.24,0,0,1,2.88-1.62c1.21,0,3.08.71,3.08,3.7v5.19h-1.58v-5c0-1.41-.52-2.58-2-2.58a2.29,2.29,0,0,0-2.12,1.62,2.35,2.35,0,0,0-.11.74v5.24H517.9Z"/><path class="cls-4" d="M534.1,97.45a6.14,6.14,0,0,1-2.51.51,4.14,4.14,0,0,1-4.34-4.45,4.44,4.44,0,0,1,4.69-4.64,5,5,0,0,1,2.19.46l-.36,1.21a3.85,3.85,0,0,0-1.83-.41,3,3,0,0,0-3.08,3.29,3,3,0,0,0,3,3.26,4.7,4.7,0,0,0,2-.41Z"/><path class="cls-4" d="M536,85h1.58v5.45h0a3,3,0,0,1,1.13-1.13,3.26,3.26,0,0,1,1.62-.43c1.17,0,3,.71,3,3.7v5.19h-1.59v-5c0-1.4-.52-2.57-2-2.57a2.31,2.31,0,0,0-2.13,1.57,2,2,0,0,0-.11.75v5.26H536Z"/><path class="cls-4" d="M557.64,93.33A4.27,4.27,0,0,1,553.3,98a4.16,4.16,0,0,1-4.18-4.49,4.26,4.26,0,0,1,4.33-4.6A4.11,4.11,0,0,1,557.64,93.33Zm-6.89.09c0,1.91,1.08,3.35,2.62,3.35S556,95.35,556,93.38c0-1.47-.74-3.33-2.61-3.33S550.75,91.78,550.75,93.42Z"/><path class="cls-4" d="M559.8,97.76V90.25h-1.21V89h1.21v-.41a4.18,4.18,0,0,1,1-3,3,3,0,0,1,2.12-.81,3.48,3.48,0,0,1,1.35.25l-.21,1.22a2.47,2.47,0,0,0-1-.19c-1.35,0-1.69,1.17-1.69,2.52V89h2.1v1.21h-2.1v7.51Z"/><path class="cls-4" d="M570.62,87V89h2.27v1.21h-2.27V95c0,1.08.3,1.69,1.18,1.69a3,3,0,0,0,.92-.1l.07,1.2a4.2,4.2,0,0,1-1.4.22,2.24,2.24,0,0,1-1.71-.67,3.41,3.41,0,0,1-.61-2.29V90.25h-1.35V89h1.35V87.42Z"/><path class="cls-4" d="M574.67,85h1.58v5.45h0a2.92,2.92,0,0,1,1.13-1.13,3.26,3.26,0,0,1,1.62-.43c1.17,0,3,.71,3,3.7v5.19H580.5v-5c0-1.4-.52-2.57-2-2.57a2.3,2.3,0,0,0-2.12,1.57,2,2,0,0,0-.11.75v5.26h-1.58Z"/><path class="cls-4" d="M585.54,93.69a2.78,2.78,0,0,0,3,3,5.71,5.71,0,0,0,2.41-.45l.29,1.13a7.14,7.14,0,0,1-2.92.56A4.06,4.06,0,0,1,584,93.55c0-2.63,1.54-4.68,4.08-4.68,2.87,0,3.6,2.48,3.6,4.08a3.59,3.59,0,0,1-.05.74Zm4.64-1.13A2.25,2.25,0,0,0,588,90a2.59,2.59,0,0,0-2.43,2.56Z"/></g><g class="cls-1"><path class="cls-4" d="M603.7,97.45a6.14,6.14,0,0,1-2.51.51,4.14,4.14,0,0,1-4.34-4.45,4.44,4.44,0,0,1,4.69-4.64,5,5,0,0,1,2.19.46l-.36,1.21a3.85,3.85,0,0,0-1.83-.41,3,3,0,0,0-3.08,3.29,3,3,0,0,0,3,3.26,4.7,4.7,0,0,0,1.95-.41Z"/></g><g class="cls-1"><path class="cls-4" d="M606.33,93.69a2.78,2.78,0,0,0,3,3,5.71,5.71,0,0,0,2.41-.45L612,97.4a7.14,7.14,0,0,1-2.92.56,4.06,4.06,0,0,1-4.29-4.41c0-2.63,1.55-4.68,4.09-4.68,2.86,0,3.6,2.48,3.6,4.08a4.48,4.48,0,0,1,0,.74ZM611,92.56A2.25,2.25,0,0,0,608.78,90a2.6,2.6,0,0,0-2.44,2.56Z"/><path class="cls-4" d="M614.46,85h1.59V97.76h-1.59Z"/><path class="cls-4" d="M619.59,93.69a2.79,2.79,0,0,0,3,3,5.65,5.65,0,0,0,2.41-.45l.29,1.13a7.12,7.12,0,0,1-2.91.56,4.06,4.06,0,0,1-4.29-4.41c0-2.63,1.55-4.68,4.09-4.68,2.86,0,3.6,2.48,3.6,4.08a3.47,3.47,0,0,1-.06.74Zm4.65-1.13A2.25,2.25,0,0,0,622,90a2.6,2.6,0,0,0-2.43,2.56Z"/><path class="cls-4" d="M627.73,85h1.56v5.47h0a3.24,3.24,0,0,1,3-1.58c2.18,0,3.69,1.8,3.69,4.42,0,3.12-2,4.67-3.92,4.67a3.19,3.19,0,0,1-2.94-1.62h0L629,97.76h-1.35c0-.59.07-1.48.07-2.25Zm1.56,9.29a1.83,1.83,0,0,0,.08.57,2.42,2.42,0,0,0,2.37,1.86c1.68,0,2.65-1.35,2.65-3.35,0-1.75-.9-3.24-2.61-3.24a2.55,2.55,0,0,0-2.4,1.94,2.71,2.71,0,0,0-.09.67Z"/></g><g class="cls-1"><path class="cls-4" d="M638,91.76c0-1,0-1.9-.07-2.72h1.39l.07,1.73h.06a2.61,2.61,0,0,1,2.43-1.9,3,3,0,0,1,.43,0v1.5a2.24,2.24,0,0,0-.54,0,2.21,2.21,0,0,0-2.13,2,5.46,5.46,0,0,0-.05.73v4.65H638Z"/></g><g class="cls-1"><path class="cls-4" d="M649.89,95.67a14.64,14.64,0,0,0,.12,2.09h-1.42l-.13-1.1h-.05a3.23,3.23,0,0,1-2.66,1.3,2.48,2.48,0,0,1-2.67-2.5c0-2.11,1.87-3.26,5.24-3.25V92a1.78,1.78,0,0,0-2-2,4.26,4.26,0,0,0-2.29.64l-.36-1.06a5.66,5.66,0,0,1,2.88-.75c2.67,0,3.32,1.81,3.32,3.54Zm-1.53-2.36c-1.73,0-3.69.27-3.69,2a1.38,1.38,0,0,0,1.47,1.51,2.2,2.2,0,0,0,2.14-1.46,1.62,1.62,0,0,0,.08-.5Z"/></g><g class="cls-1"><path class="cls-4" d="M654.28,87V89h2.27v1.21h-2.27V95c0,1.08.31,1.69,1.19,1.69a3.07,3.07,0,0,0,.92-.1l.07,1.2a4.2,4.2,0,0,1-1.4.22,2.24,2.24,0,0,1-1.71-.67,3.35,3.35,0,0,1-.62-2.29V90.25h-1.35V89h1.35V87.42Z"/><path class="cls-4" d="M660.1,86.6a1,1,0,0,1-1,1,.93.93,0,0,1-1-1,1,1,0,0,1,1-1A1,1,0,0,1,660.1,86.6Zm-1.77,11.16V89h1.59v8.72Z"/><path class="cls-4" d="M670.43,93.33A4.27,4.27,0,0,1,666.09,98a4.16,4.16,0,0,1-4.18-4.49,4.26,4.26,0,0,1,4.33-4.6A4.11,4.11,0,0,1,670.43,93.33Zm-6.9.09c0,1.91,1.08,3.35,2.63,3.35s2.65-1.42,2.65-3.39c0-1.47-.74-3.33-2.61-3.33S663.53,91.78,663.53,93.42Z"/><path class="cls-4" d="M672.43,91.4c0-.91,0-1.63-.08-2.36h1.41l.09,1.45h0a3.25,3.25,0,0,1,2.89-1.62c1.2,0,3.07.71,3.07,3.7v5.19h-1.58v-5c0-1.41-.52-2.58-2-2.58a2.29,2.29,0,0,0-2.12,1.62,2.35,2.35,0,0,0-.11.74v5.24h-1.58Z"/><path class="cls-4" d="M682.2,96.16a4.45,4.45,0,0,0,2.11.61c1.13,0,1.67-.56,1.67-1.3s-.45-1.15-1.6-1.58c-1.59-.58-2.32-1.42-2.32-2.47,0-1.4,1.15-2.55,3-2.55a4,4,0,0,1,2.13.54l-.38,1.15A3.33,3.33,0,0,0,685,90c-.94,0-1.44.54-1.44,1.18s.5,1,1.63,1.5c1.5.56,2.29,1.31,2.29,2.61,0,1.55-1.21,2.63-3.24,2.63a5,5,0,0,1-2.45-.61Z"/><path class="cls-4" d="M701.25,93.33A4.27,4.27,0,0,1,696.91,98a4.16,4.16,0,0,1-4.18-4.49,4.26,4.26,0,0,1,4.32-4.6A4.12,4.12,0,0,1,701.25,93.33Zm-6.9.09c0,1.91,1.08,3.35,2.63,3.35s2.65-1.42,2.65-3.39c0-1.47-.74-3.33-2.62-3.33S694.35,91.78,694.35,93.42Z"/><path class="cls-4" d="M703.4,97.76V90.25h-1.2V89h1.2v-.41a4.18,4.18,0,0,1,1-3,3,3,0,0,1,2.13-.81,3.56,3.56,0,0,1,1.35.25l-.22,1.22a2.43,2.43,0,0,0-1-.19c-1.35,0-1.69,1.17-1.69,2.52V89h2.11v1.21H705v7.51Z"/><path class="cls-4" d="M714.22,87V89h2.27v1.21h-2.27V95c0,1.08.31,1.69,1.19,1.69a3.12,3.12,0,0,0,.92-.1l.07,1.2A4.25,4.25,0,0,1,715,98a2.22,2.22,0,0,1-1.71-.67,3.35,3.35,0,0,1-.62-2.29V90.25h-1.35V89h1.35V87.42Z"/><path class="cls-4" d="M718.27,85h1.59v5.45h0A3,3,0,0,1,721,89.3a3.21,3.21,0,0,1,1.62-.43c1.17,0,3,.71,3,3.7v5.19H724.1v-5c0-1.4-.52-2.57-2-2.57A2.31,2.31,0,0,0,720,91.75a2,2,0,0,0-.1.75v5.26h-1.59Z"/><path class="cls-4" d="M729.14,93.69a2.79,2.79,0,0,0,3,3,5.65,5.65,0,0,0,2.41-.45l.29,1.13a7.12,7.12,0,0,1-2.91.56,4.06,4.06,0,0,1-4.29-4.41c0-2.63,1.55-4.68,4.09-4.68,2.86,0,3.6,2.48,3.6,4.08a3.47,3.47,0,0,1-.06.74Zm4.65-1.13a2.25,2.25,0,0,0-2.2-2.56,2.6,2.6,0,0,0-2.43,2.56Z"/><path class="cls-4" d="M741.09,85h1.59V97.76h-1.59Z"/><path class="cls-4" d="M747.11,86.6a1,1,0,0,1-1,1,.93.93,0,0,1-1-1,1,1,0,0,1,1-1A1,1,0,0,1,747.11,86.6Zm-1.77,11.16V89h1.59v8.72Z"/></g><g class="cls-1"><path class="cls-4" d="M749.72,97.76V90.25h-1.21V89h1.21v-.41a4.18,4.18,0,0,1,1-3,3,3,0,0,1,2.13-.81,3.52,3.52,0,0,1,1.35.25L754,86.25a2.42,2.42,0,0,0-1-.19c-1.35,0-1.7,1.17-1.7,2.52V89h2.11v1.21h-2.11v7.51Z"/></g><g class="cls-1"><path class="cls-4" d="M755.46,93.69a2.78,2.78,0,0,0,3,3,5.71,5.71,0,0,0,2.41-.45l.29,1.13a7.14,7.14,0,0,1-2.92.56,4.06,4.06,0,0,1-4.29-4.41c0-2.63,1.55-4.68,4.09-4.68,2.86,0,3.6,2.48,3.6,4.08a4.48,4.48,0,0,1,0,.74Zm4.64-1.13A2.25,2.25,0,0,0,757.91,90a2.61,2.61,0,0,0-2.44,2.56Z"/><path class="cls-4" d="M773.53,95.67a14.53,14.53,0,0,0,.13,2.09h-1.43l-.12-1.1h-.06a3.22,3.22,0,0,1-2.66,1.3,2.48,2.48,0,0,1-2.67-2.5c0-2.11,1.88-3.26,5.24-3.25V92a1.77,1.77,0,0,0-2-2,4.2,4.2,0,0,0-2.28.64l-.36-1.06a5.63,5.63,0,0,1,2.88-.75c2.66,0,3.31,1.81,3.31,3.54ZM772,93.31c-1.73,0-3.69.27-3.69,2a1.38,1.38,0,0,0,1.47,1.51,2.21,2.21,0,0,0,2.15-1.46,1.93,1.93,0,0,0,.07-.5Z"/><path class="cls-4" d="M776.08,91.4c0-.91,0-1.63-.07-2.36h1.41l.09,1.45h0a3.22,3.22,0,0,1,2.88-1.62c1.21,0,3.08.71,3.08,3.7v5.19h-1.58v-5c0-1.41-.52-2.58-2-2.58a2.28,2.28,0,0,0-2.12,1.62,2.35,2.35,0,0,0-.11.74v5.24h-1.59Z"/><path class="cls-4" d="M793.58,85V95.51c0,.77,0,1.66.07,2.25h-1.4l-.07-1.51h-.06A3.14,3.14,0,0,1,789.19,98c-2.11,0-3.75-1.78-3.75-4.43,0-2.9,1.8-4.66,3.91-4.66A2.93,2.93,0,0,1,792,90.18h0V85ZM792,92.59a2.44,2.44,0,0,0-.08-.66,2.32,2.32,0,0,0-2.28-1.82c-1.64,0-2.61,1.44-2.61,3.35s.88,3.22,2.57,3.22a2.39,2.39,0,0,0,2.32-1.89,2.51,2.51,0,0,0,.08-.69Z"/><path class="cls-4" d="M800,85h1.59V97.76H800Z"/><path class="cls-4" d="M805.17,93.69a2.79,2.79,0,0,0,3,3,5.68,5.68,0,0,0,2.41-.45l.29,1.13a7.14,7.14,0,0,1-2.92.56,4.06,4.06,0,0,1-4.28-4.41c0-2.63,1.55-4.68,4.09-4.68,2.86,0,3.6,2.48,3.6,4.08a3.47,3.47,0,0,1-.06.74Zm4.65-1.13a2.26,2.26,0,0,0-2.2-2.56,2.6,2.6,0,0,0-2.43,2.56Z"/><path class="cls-4" d="M820.76,96.48c0,2-.41,3.22-1.24,4a4.8,4.8,0,0,1-3.19,1,5.64,5.64,0,0,1-2.9-.72l.4-1.22a4.75,4.75,0,0,0,2.56.7c1.62,0,2.81-.85,2.81-3.06v-1h0a3.08,3.08,0,0,1-2.77,1.45c-2.16,0-3.71-1.83-3.71-4.25,0-3,1.92-4.6,3.94-4.6a2.92,2.92,0,0,1,2.72,1.49h0l0-1.32h1.4c-.05.62-.07,1.34-.07,2.38Zm-1.58-4a2.13,2.13,0,0,0-.09-.7,2.27,2.27,0,0,0-2.22-1.69c-1.51,0-2.59,1.28-2.59,3.29,0,1.71.88,3.14,2.57,3.14a2.28,2.28,0,0,0,2.2-1.62,2.79,2.79,0,0,0,.13-.85Z"/><path class="cls-4" d="M824.25,93.69a2.79,2.79,0,0,0,3,3,5.65,5.65,0,0,0,2.41-.45l.29,1.13A7.14,7.14,0,0,1,827,98a4.06,4.06,0,0,1-4.28-4.41c0-2.63,1.55-4.68,4.09-4.68,2.86,0,3.6,2.48,3.6,4.08a3.47,3.47,0,0,1-.06.74Zm4.65-1.13A2.25,2.25,0,0,0,826.7,90a2.6,2.6,0,0,0-2.43,2.56Z"/><path class="cls-4" d="M832.39,91.4c0-.91,0-1.63-.08-2.36h1.41l.09,1.45h0a3.22,3.22,0,0,1,2.88-1.62c1.2,0,3.07.71,3.07,3.7v5.19h-1.58v-5c0-1.41-.52-2.58-2-2.58a2.29,2.29,0,0,0-2.12,1.62,2.35,2.35,0,0,0-.11.74v5.24h-1.58Z"/><path class="cls-4" d="M849.88,85V95.51c0,.77,0,1.66.08,2.25h-1.41l-.07-1.51h-.05A3.16,3.16,0,0,1,845.49,98c-2.11,0-3.74-1.78-3.74-4.43,0-2.9,1.8-4.66,3.9-4.66a2.92,2.92,0,0,1,2.63,1.31h0V85Zm-1.56,7.61a2.9,2.9,0,0,0-.07-.66A2.34,2.34,0,0,0,846,90.11c-1.64,0-2.61,1.44-2.61,3.35s.88,3.22,2.57,3.22a2.4,2.4,0,0,0,2.33-1.89,3,3,0,0,0,.07-.69Z"/></g><g class="cls-1"><path class="cls-4" d="M452.79,114.93a4.27,4.27,0,0,1-4.34,4.63,4.16,4.16,0,0,1-4.18-4.48,4.26,4.26,0,0,1,4.33-4.61A4.11,4.11,0,0,1,452.79,114.93Zm-6.9.09c0,1.91,1.08,3.35,2.63,3.35s2.65-1.42,2.65-3.38c0-1.48-.74-3.34-2.61-3.34S445.89,113.38,445.89,115Z"/><path class="cls-4" d="M455,119.36v-7.51h-1.21v-1.2H455v-.42a4.18,4.18,0,0,1,1-3,3,3,0,0,1,2.12-.81,3.48,3.48,0,0,1,1.35.25l-.21,1.22a2.47,2.47,0,0,0-1-.19c-1.35,0-1.7,1.17-1.7,2.52v.47h2.11v1.2h-2.11v7.51Z"/><path class="cls-4" d="M463.91,107.41a13.2,13.2,0,0,1,2.86-.28,5,5,0,0,1,3.32.89,2.56,2.56,0,0,1,1,2.14,2.86,2.86,0,0,1-2.05,2.66v.06a3.09,3.09,0,0,1,2.5,3,3.17,3.17,0,0,1-1,2.43c-.83.78-2.2,1.14-4.18,1.14a16.8,16.8,0,0,1-2.43-.15Zm1.57,5h1.42c1.64,0,2.61-.88,2.61-2.05,0-1.4-1.06-2-2.65-2a6.88,6.88,0,0,0-1.38.11Zm0,5.8a7.76,7.76,0,0,0,1.31.07c1.62,0,3.12-.59,3.12-2.35s-1.42-2.35-3.14-2.35h-1.29Z"/><path class="cls-4" d="M479.74,117.27a14.64,14.64,0,0,0,.12,2.09h-1.42l-.13-1.1h-.05a3.24,3.24,0,0,1-2.67,1.3,2.48,2.48,0,0,1-2.66-2.5c0-2.11,1.87-3.26,5.24-3.25v-.18a1.78,1.78,0,0,0-2-2,4.23,4.23,0,0,0-2.29.64l-.36-1.06a5.63,5.63,0,0,1,2.88-.75c2.67,0,3.32,1.81,3.32,3.54Zm-1.53-2.36c-1.73,0-3.7.27-3.7,2a1.39,1.39,0,0,0,1.48,1.51,2.2,2.2,0,0,0,2.14-1.46,1.62,1.62,0,0,0,.08-.5Z"/><path class="cls-4" d="M482.29,113c0-.91,0-1.63-.07-2.35h1.4l.09,1.44h0a3.22,3.22,0,0,1,2.88-1.62c1.2,0,3.08.72,3.08,3.7v5.19h-1.59v-5c0-1.41-.52-2.58-2-2.58a2.29,2.29,0,0,0-2.13,1.62,2.35,2.35,0,0,0-.11.74v5.24h-1.58Z"/><path class="cls-4" d="M499.73,118.08c0,2-.41,3.22-1.24,4a4.8,4.8,0,0,1-3.19,1,5.58,5.58,0,0,1-2.89-.72l.39-1.22a4.75,4.75,0,0,0,2.56.7c1.62,0,2.81-.84,2.81-3.06v-.95h0a3.08,3.08,0,0,1-2.77,1.45c-2.16,0-3.71-1.83-3.71-4.24,0-3,1.93-4.61,3.94-4.61a2.91,2.91,0,0,1,2.72,1.49h0l0-1.31h1.41c-.06.61-.08,1.33-.08,2.37Zm-1.58-4a2.13,2.13,0,0,0-.09-.7,2.27,2.27,0,0,0-2.22-1.69c-1.51,0-2.59,1.28-2.59,3.3,0,1.71.88,3.13,2.58,3.13A2.27,2.27,0,0,0,498,116.5a2.79,2.79,0,0,0,.13-.85Z"/><path class="cls-4" d="M508.46,117.27a14.53,14.53,0,0,0,.13,2.09h-1.42l-.13-1.1H507a3.25,3.25,0,0,1-2.67,1.3,2.48,2.48,0,0,1-2.66-2.5c0-2.11,1.87-3.26,5.24-3.25v-.18a1.78,1.78,0,0,0-2-2,4.23,4.23,0,0,0-2.29.64l-.36-1.06a5.63,5.63,0,0,1,2.88-.75c2.66,0,3.31,1.81,3.31,3.54Zm-1.53-2.36c-1.73,0-3.69.27-3.69,2a1.39,1.39,0,0,0,1.48,1.51,2.2,2.2,0,0,0,2.14-1.46,1.93,1.93,0,0,0,.07-.5Z"/><path class="cls-4" d="M511,106.58h1.56v5.47h0a3.24,3.24,0,0,1,3-1.58c2.18,0,3.69,1.8,3.69,4.43,0,3.11-2,4.66-3.92,4.66a3.19,3.19,0,0,1-2.94-1.62h0l-.09,1.42h-1.36c0-.59.08-1.48.08-2.25Zm1.56,9.29a1.79,1.79,0,0,0,.08.57A2.42,2.42,0,0,0,515,118.3c1.68,0,2.65-1.35,2.65-3.35,0-1.75-.9-3.24-2.61-3.24a2.55,2.55,0,0,0-2.4,1.94,2.71,2.71,0,0,0-.09.67Z"/><path class="cls-4" d="M527.38,117.27a14.53,14.53,0,0,0,.13,2.09h-1.43l-.12-1.1h-.06a3.22,3.22,0,0,1-2.66,1.3,2.48,2.48,0,0,1-2.67-2.5c0-2.11,1.88-3.26,5.24-3.25v-.18a1.77,1.77,0,0,0-2-2,4.22,4.22,0,0,0-2.28.64l-.36-1.06a5.63,5.63,0,0,1,2.88-.75c2.66,0,3.31,1.81,3.31,3.54Zm-1.53-2.36c-1.73,0-3.69.27-3.69,2a1.39,1.39,0,0,0,1.48,1.51,2.2,2.2,0,0,0,2.14-1.46,1.93,1.93,0,0,0,.07-.5Z"/><path class="cls-4" d="M529.94,113c0-.91,0-1.63-.08-2.35h1.41l.09,1.44h0a3.24,3.24,0,0,1,2.88-1.62c1.21,0,3.08.72,3.08,3.7v5.19h-1.58v-5c0-1.41-.52-2.58-2-2.58a2.29,2.29,0,0,0-2.12,1.62,2.35,2.35,0,0,0-.11.74v5.24h-1.58Z"/><path class="cls-4" d="M547.43,106.58v10.53c0,.77,0,1.66.07,2.25h-1.4l-.07-1.51H546a3.14,3.14,0,0,1-2.93,1.71c-2.11,0-3.75-1.78-3.75-4.43,0-2.9,1.81-4.66,3.91-4.66a2.93,2.93,0,0,1,2.63,1.31h0v-5.2Zm-1.56,7.61a2.48,2.48,0,0,0-.08-.66,2.32,2.32,0,0,0-2.28-1.82c-1.64,0-2.61,1.44-2.61,3.35,0,1.76.88,3.22,2.57,3.22a2.39,2.39,0,0,0,2.32-1.89,2.49,2.49,0,0,0,.08-.68Z"/><path class="cls-4" d="M550.08,106.58h1.58V112h0a3,3,0,0,1,1.13-1.13,3.26,3.26,0,0,1,1.62-.43c1.17,0,3,.72,3,3.7v5.19h-1.58v-5c0-1.4-.52-2.57-2-2.57a2.3,2.3,0,0,0-2.12,1.57,2,2,0,0,0-.11.75v5.26h-1.58Z"/><path class="cls-4" d="M567.36,117c0,.91,0,1.71.07,2.39H566l-.09-1.42h0a3.26,3.26,0,0,1-2.88,1.62c-1.37,0-3-.78-3-3.82v-5.09h1.59v4.8c0,1.66.52,2.79,1.94,2.79a2.28,2.28,0,0,0,2.09-1.45,2.21,2.21,0,0,0,.14-.81v-5.33h1.59Z"/><path class="cls-4" d="M573.66,117.45a5.3,5.3,0,0,0,2.79.79c1.6,0,2.54-.84,2.54-2.07s-.65-1.78-2.29-2.39c-2-.72-3.21-1.77-3.21-3.46,0-1.89,1.57-3.29,3.93-3.29a5.38,5.38,0,0,1,2.66.59l-.43,1.28a4.53,4.53,0,0,0-2.28-.58c-1.66,0-2.29,1-2.29,1.82,0,1.14.74,1.69,2.41,2.34,2,.79,3.08,1.78,3.08,3.57s-1.37,3.51-4.23,3.51a6.31,6.31,0,0,1-3.1-.79Z"/><path class="cls-4" d="M582.67,106.58h1.59V112h0a3,3,0,0,1,1.14-1.13,3.26,3.26,0,0,1,1.62-.43c1.17,0,3,.72,3,3.7v5.19h-1.58v-5c0-1.4-.52-2.57-2-2.57a2.28,2.28,0,0,0-2.12,1.57,2,2,0,0,0-.11.75v5.26h-1.59Z"/><path class="cls-4" d="M593.55,115.29a2.78,2.78,0,0,0,3,3,5.71,5.71,0,0,0,2.41-.45l.29,1.13a7.14,7.14,0,0,1-2.92.56,4.06,4.06,0,0,1-4.29-4.41c0-2.63,1.55-4.68,4.09-4.68,2.86,0,3.6,2.48,3.6,4.08a4.48,4.48,0,0,1-.05.74Zm4.64-1.13A2.25,2.25,0,0,0,596,111.6a2.6,2.6,0,0,0-2.44,2.56Z"/><path class="cls-4" d="M603.45,108.2a1,1,0,0,1-1,1,.93.93,0,0,1-1-1,1,1,0,0,1,1-1A1,1,0,0,1,603.45,108.2Zm-1.77,11.16v-8.71h1.59v8.71Z"/></g><g class="cls-1"><path class="cls-4" d="M607.46,114.64h0c.21-.3.5-.68.75-1l2.58-3h1.89l-3.35,3.58,3.83,5.13h-1.94l-3-4.18-.81.9v3.28h-1.57V106.58h1.57Z"/></g><g class="cls-1"><path class="cls-4" d="M614.64,106.58h1.59V112h0a2.92,2.92,0,0,1,1.13-1.13,3.26,3.26,0,0,1,1.62-.43c1.17,0,3,.72,3,3.7v5.19h-1.58v-5c0-1.4-.52-2.57-2-2.57a2.29,2.29,0,0,0-2.12,1.57,2,2,0,0,0-.11.75v5.26h-1.59Z"/></g><g class="cls-1"><path class="cls-4" d="M638.73,114c-.09-1.69-.2-3.74-.2-5.24h0c-.43,1.41-.92,2.94-1.53,4.61l-2.14,5.89h-1.19l-2-5.78c-.58-1.73-1-3.28-1.39-4.72h0c0,1.51-.13,3.53-.24,5.37l-.32,5.2h-1.5l.85-12.14h2l2.07,5.87c.5,1.5.9,2.83,1.22,4.09h0c.32-1.22.76-2.55,1.3-4.09l2.16-5.87h2l.75,12.14H639Z"/></g><g class="cls-1"><path class="cls-4" d="M650.27,117c0,.91,0,1.71.07,2.39h-1.41l-.09-1.42h0a3.26,3.26,0,0,1-2.88,1.62c-1.37,0-3-.78-3-3.82v-5.09h1.58v4.8c0,1.66.53,2.79,2,2.79a2.28,2.28,0,0,0,2.09-1.45,2.21,2.21,0,0,0,.14-.81v-5.33h1.59Z"/><path class="cls-4" d="M650.75,121.92a2.46,2.46,0,0,0,1.73-.69c.43-.48.61-1.17.61-3.26v-7.32h1.58v7.94c0,1.69-.27,2.79-1,3.58a4,4,0,0,1-2.7,1Zm4.1-13.72a1,1,0,0,1-2,0,1,1,0,0,1,1-1A1,1,0,0,1,654.85,108.2Z"/><path class="cls-4" d="M659,108.2a1,1,0,0,1-1,1,.93.93,0,0,1-.95-1,1,1,0,0,1,1-1A1,1,0,0,1,659,108.2Zm-1.76,11.16v-8.71h1.58v8.71Z"/><path class="cls-4" d="M661.48,106.58H663v5.47h0a3.24,3.24,0,0,1,3-1.58c2.18,0,3.69,1.8,3.69,4.43,0,3.11-2,4.66-3.92,4.66a3.19,3.19,0,0,1-2.94-1.62h0l-.09,1.42h-1.35c0-.59.07-1.48.07-2.25Zm1.56,9.29a1.79,1.79,0,0,0,.08.57,2.43,2.43,0,0,0,2.37,1.86c1.68,0,2.65-1.35,2.65-3.35,0-1.75-.9-3.24-2.61-3.24a2.55,2.55,0,0,0-2.4,1.94,2.71,2.71,0,0,0-.09.67Z"/><path class="cls-4" d="M679,117c0,.91,0,1.71.07,2.39h-1.4l-.09-1.42h0a3.25,3.25,0,0,1-2.88,1.62c-1.37,0-3-.78-3-3.82v-5.09h1.58v4.8c0,1.66.52,2.79,2,2.79a2.25,2.25,0,0,0,2.08-1.45,2.21,2.21,0,0,0,.15-.81v-5.33H679Z"/><path class="cls-4" d="M681.64,113.36c0-1,0-1.9-.07-2.71H683l.07,1.72h.06a2.62,2.62,0,0,1,2.43-1.9,2.9,2.9,0,0,1,.43,0V112a2.24,2.24,0,0,0-2.66,2,4.15,4.15,0,0,0-.06.73v4.65h-1.58Z"/></g><g class="cls-1"><path class="cls-4" d="M691.39,107.39a17.49,17.49,0,0,1,3-.26,5,5,0,0,1,3.51,1,3.1,3.1,0,0,1,1,2.32,3.2,3.2,0,0,1-2.27,3.08v0a3,3,0,0,1,1.77,2.45,19.23,19.23,0,0,0,.93,3.33h-1.62a14.88,14.88,0,0,1-.79-2.9c-.36-1.67-1-2.3-2.45-2.36H693v5.26h-1.57Zm1.57,5.52h1.6c1.67,0,2.73-.91,2.73-2.3,0-1.57-1.13-2.25-2.79-2.25a6.25,6.25,0,0,0-1.54.13Z"/></g><g class="cls-1"><path class="cls-4" d="M707.36,117.27a14.64,14.64,0,0,0,.12,2.09h-1.42l-.13-1.1h0a3.24,3.24,0,0,1-2.67,1.3,2.48,2.48,0,0,1-2.66-2.5c0-2.11,1.87-3.26,5.24-3.25v-.18a1.78,1.78,0,0,0-2-2,4.23,4.23,0,0,0-2.29.64l-.36-1.06a5.66,5.66,0,0,1,2.88-.75c2.67,0,3.32,1.81,3.32,3.54Zm-1.53-2.36c-1.73,0-3.7.27-3.7,2a1.39,1.39,0,0,0,1.48,1.51,2.2,2.2,0,0,0,2.14-1.46,1.62,1.62,0,0,0,.08-.5Z"/><path class="cls-4" d="M709.91,106.58h1.59V112h0a3,3,0,0,1,1.14-1.13,3.21,3.21,0,0,1,1.62-.43c1.17,0,3,.72,3,3.7v5.19h-1.59v-5c0-1.4-.52-2.57-2-2.57a2.31,2.31,0,0,0-2.13,1.57,2,2,0,0,0-.1.75v5.26h-1.59Z"/><path class="cls-4" d="M719.9,113c0-.91,0-1.63-.07-2.35h1.38l.08,1.42h.05a3,3,0,0,1,2.76-1.6,2.55,2.55,0,0,1,2.44,1.74h0a3.46,3.46,0,0,1,1-1.13,2.9,2.9,0,0,1,1.91-.61c1.17,0,2.88.75,2.88,3.78v5.11h-1.55v-4.91c0-1.7-.63-2.69-1.89-2.69a2.09,2.09,0,0,0-1.89,1.42,2.85,2.85,0,0,0-.13.8v5.38h-1.54v-5.22c0-1.39-.62-2.38-1.82-2.38a2.18,2.18,0,0,0-2,1.59,2.07,2.07,0,0,0-.13.77v5.24H719.9Z"/><path class="cls-4" d="M741,117.27a14.53,14.53,0,0,0,.13,2.09h-1.42l-.13-1.1h-.05a3.25,3.25,0,0,1-2.67,1.3,2.48,2.48,0,0,1-2.66-2.5c0-2.11,1.87-3.26,5.24-3.25v-.18a1.78,1.78,0,0,0-2-2,4.23,4.23,0,0,0-2.29.64l-.36-1.06a5.63,5.63,0,0,1,2.88-.75c2.67,0,3.31,1.81,3.31,3.54Zm-1.53-2.36c-1.72,0-3.69.27-3.69,2a1.39,1.39,0,0,0,1.48,1.51,2.2,2.2,0,0,0,2.14-1.46,1.58,1.58,0,0,0,.07-.5Z"/><path class="cls-4" d="M743.59,113c0-.91,0-1.63-.07-2.35h1.4l.09,1.44h0a3.22,3.22,0,0,1,2.88-1.62c1.2,0,3.08.72,3.08,3.7v5.19h-1.59v-5c0-1.41-.52-2.58-2-2.58a2.29,2.29,0,0,0-2.13,1.62,2.35,2.35,0,0,0-.11.74v5.24h-1.58Z"/></g></g><line class="cls-5" x1="419.2" y1="77.52" x2="419.2" y2="129.81"/><rect class="cls-2" x="862.44" y="63.14" width="288.17" height="86.37" rx="7.85"/><rect class="cls-6" x="873.77" y="90.72" width="52.81" height="42.88" rx="2.78"/><rect class="cls-6" x="940.14" y="90.72" width="197.21" height="42.88" rx="5.37"/><g class="cls-1"><g class="cls-1"><path class="cls-4" d="M880,75.28H884a5.32,5.32,0,0,1,0,10.63H880Zm1.26,9.46h2.4c2.43,0,4.28-1.23,4.28-4.15s-1.85-4.14-4.28-4.14h-2.4Z"/></g><g class="cls-1"><path class="cls-4" d="M893.39,75.28h1.19l4.52,10.63h-1.47l-1.08-2.61h-5.32l-1.09,2.61h-1.43ZM894,76.9h0l-2.21,5.23h4.34Z"/></g><g class="cls-1"><path class="cls-4" d="M900.46,81.33l-4-6h1.6l3,4.8,3.08-4.8h1.51l-4,6v4.58h-1.26Z"/></g><g class="cls-1"><path class="cls-4" d="M910.93,77.16a2.2,2.2,0,0,0-1.94-1c-1.11,0-2.27.53-2.27,1.79,0,1,.54,1.41,2.24,2s3.18,1.07,3.18,3.15-1.81,3.11-3.74,3.11a3.84,3.84,0,0,1-3.27-1.47l1.08-.89A2.58,2.58,0,0,0,908.48,85c1.08,0,2.31-.63,2.31-1.85S909.91,81.63,908,81c-1.5-.5-2.64-1.16-2.64-2.93,0-2,1.76-3.06,3.62-3.06a3.63,3.63,0,0,1,3,1.25Z"/></g></g><g class="cls-1"><path class="cls-4" d="M951.53,76.45H948v9.46h-1.26V76.45h-3.51V75.28h8.28Z"/><path class="cls-4" d="M953,75.28h1.26V85.91H953Z"/><path class="cls-4" d="M956.93,75.28h1.87l3.61,8.33h0l3.63-8.33h1.83V85.91h-1.26V77h0l-3.81,8.92H962L958.22,77h0v8.92h-1.26Z"/><path class="cls-4" d="M970.55,75.28h6.68v1.17h-5.42v3.33h5.06V81h-5.06v3.78h5.69v1.17h-7Z"/></g><g class="cls-1"><g class="cls-1"><path class="cls-7" d="M889.79,115.79a6.87,6.87,0,0,1-1.76.26c-4.78,0-8-3.67-8-8.31,0-5.25,4.17-8.73,9.49-8.73s9.49,3.48,9.49,8.73c0,3.67-1.43,5.9-3,8.45l-5.57,8.7h-6.58Zm-.25-3.84a4,4,0,1,0-4.09-4A3.9,3.9,0,0,0,889.54,112Z"/><path class="cls-7" d="M918.7,104.18H908.6l-.11,3.92a6.78,6.78,0,0,1,2.26-.29c5.14,0,8.81,3.2,8.81,8.42,0,5.75-4.13,9.09-9.71,9.09-4.38,0-7.47-2.19-8.59-6.51l5.65-1.29a3.41,3.41,0,0,0,3.48,3.06,3.62,3.62,0,0,0,3.78-3.82c0-3.34-3.06-4.2-5.86-4.2a16.87,16.87,0,0,0-5.29.93l.29-14H918.7Z"/><path class="cls-7" d="M953,105.48,947.92,110l-3-3.52,8.3-7h5v25.45H953Z"/><path class="cls-7" d="M965.72,119.17l9.89-8.88c1-.93,2.26-2,2.26-3.55a2.88,2.88,0,0,0-3.13-2.77,3.23,3.23,0,0,0-3.3,3.23l-5.4-.39c.33-5.25,4-7.8,9-7.8,4.64,0,8.23,2.55,8.23,7.65a8.34,8.34,0,0,1-3.34,6.83l-7.73,6.65h11.29v4.75H965.72Z"/><path class="cls-7" d="M1001.2,107a3.31,3.31,0,1,1-3.31,3.3A3.29,3.29,0,0,1,1001.2,107Zm0,11.5a3.31,3.31,0,1,1-3.31,3.31A3.29,3.29,0,0,1,1001.2,118.49Z"/><path class="cls-7" d="M1027.8,99c7.55,0,9.46,7.11,9.46,13.15s-1.91,13.16-9.46,13.16-9.45-7.12-9.45-13.16S1020.25,99,1027.8,99Zm0,21.35c3.89,0,4.07-5.54,4.07-8.2s-.18-8.19-4.07-8.19-4.06,5.53-4.06,8.19S1023.92,120.36,1027.8,120.36Z"/><path class="cls-7" d="M1046.21,109.47H1048c2,0,4.1-.43,4.1-2.84a2.88,2.88,0,0,0-3.16-2.66,3.12,3.12,0,0,0-3.17,2.37l-5.93-1.22c1.12-4.42,4.75-6.11,9.06-6.11,4.53,0,8.59,2.19,8.59,7.08a5.32,5.32,0,0,1-4.35,5.57v.11c3.06.39,4.78,3,4.78,5.93,0,5.1-4.17,7.62-9.16,7.62-4.53,0-8.09-2-9.13-6.58l5.68-1.33a3.4,3.4,0,0,0,3.77,3c2.34,0,3.45-1.37,3.45-3.27,0-2.88-2.62-3-5-3h-1.26Z"/><path class="cls-7" d="M1075.69,107a3.31,3.31,0,1,1-3.31,3.3A3.3,3.3,0,0,1,1075.69,107Zm0,11.5a3.31,3.31,0,1,1-3.31,3.31A3.3,3.3,0,0,1,1075.69,118.49Z"/><path class="cls-7" d="M1102,105.48l-5.1,4.49-3.06-3.52,8.31-7h5v25.45H1102Z"/><path class="cls-7" d="M1126.85,104.4h-12.59v-5h18.62v4.74l-10.17,20.71h-6.29Z"/></g></g><line class="cls-8" x1="932.87" y1="97.63" x2="932.87" y2="124.89"/></svg>