<?xml version="1.0" encoding="utf-8"?>
<!-- Generator: Adobe Illustrator 23.0.2, SVG Export Plug-In . SVG Version: 6.00 Build 0)  -->
<svg version="1.1" id="Layer_1" xmlns="http://www.w3.org/2000/svg" xmlns:xlink="http://www.w3.org/1999/xlink" x="0px" y="0px"
	 viewBox="0 0 1871.6 716.5" style="enable-background:new 0 0 1871.6 716.5;" xml:space="preserve">
<style type="text/css">
	.st0{clip-path:url(#SVGID_2_);}
	.st1{opacity:9.000000e-02;enable-background:new    ;}
	.st2{fill:#F1B71B;}
	.st3{fill:#FFFFFF;}
</style>
<title>father nation</title>
<g>
	<g>
		<defs>
			<rect id="SVGID_1_" x="1.8" y="2.1" width="1869.1" height="716.5"/>
		</defs>
		<clipPath id="SVGID_2_">
			<use xlink:href="#SVGID_1_"  style="overflow:visible;"/>
		</clipPath>
		<g class="st0">
			<g id="UNUZDn">
				
					<image style="overflow:visible;enable-background:new    ;" width="2707" height="1010" id="UNUZDn-2" xlink:href="3FCFAAF6.png"  transform="matrix(0.767 0 0 0.767 -152.387 -27.9262)">
				</image>
			</g>
		</g>
	</g>
	<rect x="1.8" y="2.1" class="st1" width="1869.1" height="716.5"/>
	<path class="st2" d="M961,136.9l-6.9-27.2h3.7l3.2,13.8c0.8,3.4,1.5,6.7,2,9.4l0,0c0.4-2.7,1.3-5.9,2.2-9.4l3.6-13.8h3.7l3.4,13.8
		c0.8,3.2,1.5,6.5,1.9,9.3l0,0c0.6-3,1.3-6,2.2-9.4l3.6-13.8h3.6l-7.5,27.2H976l-3.4-14.2c-0.8-2.9-1.4-5.9-1.8-8.9h-0.1
		c-0.5,3-1.2,6-2.1,8.9l-3.9,14.2H961z"/>
	<path class="st2" d="M993.9,111.8c0,1.2-1,2.2-2.2,2.2c-1.2,0-2.2-1-2.2-2.2c0-1.2,0.9-2.2,2.1-2.2c0,0,0.1,0,0.1,0
		c1.2,0,2.2,0.9,2.2,2.1C993.9,111.7,993.9,111.7,993.9,111.8z M989.9,136.9v-19.5h3.6v19.5H989.9z"/>
	<path class="st2" d="M998.9,133.2c1.4,0.9,3,1.4,4.7,1.4c2.6,0,3.8-1.3,3.8-2.9c0-1.6-1-2.6-3.6-3.6c-3.5-1.3-5.2-3.2-5.2-5.5
		c0-3.1,2.5-5.7,6.7-5.7c1.7,0,3.3,0.4,4.8,1.2l-0.9,2.6c-1.2-0.7-2.6-1.1-4-1.1c-2.1,0-3.3,1.2-3.3,2.7s1.2,2.3,3.7,3.4
		c3.4,1.3,5.1,3,5.1,5.9c0,3.4-2.7,5.9-7.3,5.9c-1.9,0-3.8-0.4-5.5-1.3L998.9,133.2z"/>
	<path class="st2" d="M1015.4,108.1h3.6v12.2l0,0c0.6-1.1,1.5-1.9,2.5-2.5c1.1-0.6,2.4-1,3.6-1c2.6,0,6.7,1.7,6.7,8.4v11.6h-3.4
		v-11.2c0-3.1-1.2-5.8-4.5-5.8c-2.2,0-4.1,1.5-4.8,3.6c-0.2,0.5-0.3,1.1-0.2,1.7v11.8h-3.6L1015.4,108.1z"/>
	<path class="st2" d="M1039.8,127.7c-0.3,3.4,2.3,6.5,5.8,6.7c0.3,0,0.7,0,1,0c1.9,0.1,3.7-0.3,5.4-1l0.6,2.5
		c-2.1,0.9-4.3,1.3-6.5,1.2c-6,0-9.6-4-9.6-9.8c0-5.9,3.5-10.6,9.2-10.6c6.4,0,8.1,5.6,8.1,9.2c0,0.6,0,1.1-0.1,1.7L1039.8,127.7z
		 M1050.2,125.2c0-2.3-0.9-5.8-4.9-5.8c-3.6,0-5.2,3.4-5.5,5.8H1050.2z"/>
	<path class="st2" d="M1057.6,133.2c1.4,0.9,3,1.4,4.7,1.4c2.6,0,3.8-1.3,3.8-2.9c0-1.6-1-2.6-3.6-3.6c-3.5-1.3-5.2-3.2-5.2-5.5
		c0-3.1,2.5-5.7,6.7-5.7c1.7,0,3.3,0.4,4.8,1.2l-0.9,2.6c-1.2-0.7-2.6-1.1-4-1.1c-2.1,0-3.3,1.2-3.3,2.7s1.2,2.3,3.7,3.4
		c3.4,1.3,5.1,3,5.1,5.9c0,3.4-2.7,5.9-7.3,5.9c-1.9,0-3.8-0.4-5.5-1.3L1057.6,133.2z"/>
	<path class="st2" d="M1083,136.9V120h-2.8v-2.7h2.8v-0.9c-0.2-2.5,0.6-4.9,2.3-6.7c1.3-1.2,3-1.9,4.8-1.8c1,0,2.1,0.2,3,0.6
		l-0.5,2.7c-0.7-0.3-1.5-0.5-2.3-0.4c-3,0-3.8,2.7-3.8,5.7v1.1h4.7v2.7h-4.7v16.8L1083,136.9z"/>
	<path class="st2" d="M1111.6,126.9c0,7.2-5.1,10.4-9.7,10.4c-5.3,0-9.4-3.9-9.4-10.1c0-6.5,4.3-10.4,9.7-10.4
		C1107.6,116.8,1111.6,120.9,1111.6,126.9z M1096.1,127.1c0,4.3,2.5,7.5,5.9,7.5s5.9-3.2,5.9-7.6c0-3.4-1.7-7.5-5.9-7.5
		C1097.9,119.5,1096.1,123.4,1096.1,127.1L1096.1,127.1z"/>
	<path class="st2" d="M1116,123.4c0-2.3,0-4.3-0.2-6.1h3.1l0.1,3.8h0.3c0.7-2.5,2.9-4.2,5.4-4.3c0.3,0,0.7,0,1,0.1v3.4
		c-0.4-0.1-0.8-0.1-1.2-0.1c-2.5,0.1-4.5,2.1-4.8,4.6c-0.1,0.6-0.2,1.1-0.2,1.7v10.4h-3.7V123.4z"/>
	<path class="st2" d="M1155.5,126.9c0,7.2-5.1,10.4-9.7,10.4c-5.3,0-9.4-3.9-9.4-10.1c0-6.5,4.3-10.4,9.7-10.4
		C1151.6,116.8,1155.5,120.9,1155.5,126.9z M1140,127.1c0,4.3,2.5,7.5,5.9,7.5s5.9-3.2,5.9-7.6c0-3.4-1.7-7.5-5.9-7.5
		C1141.9,119.5,1140,123.4,1140,127.1z"/>
	<path class="st2" d="M1176.4,131.5c0,2,0,3.8,0.2,5.3h-3.1l-0.2-3.2h-0.1c-1.3,2.3-3.8,3.7-6.5,3.6c-3.1,0-6.7-1.7-6.7-8.6v-11.4
		h3.6v10.8c0,3.7,1.1,6.2,4.4,6.2c2.8,0,5.1-2.3,5.1-5.1v-12h3.6L1176.4,131.5z"/>
	<path class="st2" d="M1182.3,123.4c0-2.3,0-4.3-0.2-6.1h3.1l0.1,3.8h0.2c0.7-2.4,2.9-4.2,5.4-4.3c0.3,0,0.7,0,1,0.1v3.4
		c-0.4-0.1-0.8-0.1-1.2-0.1c-2.5,0.1-4.5,2.1-4.8,4.6c-0.1,0.6-0.2,1.1-0.2,1.7v10.4h-3.5L1182.3,123.4z"/>
	<path class="st2" d="M1204.2,109.6h14.7v3h-11.2v9h10.3v2.9h-10.3v12.3h-3.5V109.6z"/>
	<path class="st2" d="M1232.8,136.9l-0.3-2.5h-0.1c-1.4,1.9-3.6,3-6,2.9c-3.1,0.2-5.7-2.1-6-5.1c0-0.2,0-0.3,0-0.5
		c0-4.7,4.2-7.3,11.8-7.3V124c0.3-2.2-1.3-4.2-3.5-4.5c-0.3,0-0.7,0-1,0c-1.8,0-3.5,0.5-5.1,1.5l-0.8-2.4c1.9-1.1,4.2-1.7,6.4-1.7
		c6,0,7.4,4.1,7.4,8v7.3c0,1.6,0.1,3.1,0.3,4.7L1232.8,136.9z M1232.2,126.9c-3.9,0-8.3,0.6-8.3,4.4c-0.1,1.7,1.2,3.2,2.9,3.4
		c0.2,0,0.3,0,0.5,0c2.1,0.1,4.1-1.3,4.7-3.4c0.1-0.4,0.2-0.7,0.2-1.1L1232.2,126.9z"/>
	<path class="st2" d="M1245.5,111.7v5.6h5.1v2.7h-5.1v10.6c0,2.4,0.7,3.8,2.7,3.8c0.7,0,1.4-0.1,2.1-0.2l0.2,2.7
		c-1,0.4-2.1,0.5-3.1,0.5c-1.4,0.1-2.8-0.5-3.8-1.5c-1.1-1.5-1.6-3.3-1.4-5.1V120h-3v-2.7h3v-4.7L1245.5,111.7z"/>
	<path class="st2" d="M1254.6,108.1h3.6v12.2l0,0c0.6-1.1,1.5-1.9,2.6-2.5c1.1-0.6,2.4-1,3.6-1c2.6,0,6.8,1.7,6.8,8.4v11.6h-3.6
		v-11.3c0-3.1-1.2-5.8-4.5-5.8c-2.2,0-4.1,1.5-4.8,3.6c-0.2,0.5-0.3,1.1-0.2,1.7v11.8h-3.6L1254.6,108.1z"/>
	<path class="st2" d="M1279,127.7c-0.3,3.5,2.3,6.5,5.8,6.7c0.3,0,0.6,0,0.9,0c1.9,0.1,3.7-0.3,5.4-1l0.6,2.5
		c-2.1,0.9-4.3,1.3-6.5,1.2c-6,0-9.6-4-9.6-9.8c0-5.9,3.5-10.6,9.2-10.6c6.4,0,8.1,5.6,8.1,9.2c0,0.6,0,1.1-0.1,1.7L1279,127.7z
		 M1289.5,125.2c0-2.3-0.9-5.8-4.9-5.8c-3.6,0-5.2,3.4-5.5,5.8H1289.5z"/>
	<path class="st2" d="M1297.3,123.4c0-2.3,0-4.3-0.2-6.1h3.1l0.1,3.8h0.2c0.7-2.5,2.9-4.2,5.4-4.3c0.3,0,0.7,0,1,0.1v3.4
		c-0.4-0.1-0.8-0.1-1.2-0.1c-2.5,0.1-4.5,2.1-4.8,4.6c-0.1,0.6-0.2,1.1-0.2,1.7v10.4h-3.5L1297.3,123.4z"/>
	<path class="st2" d="M1336.8,126.9c0,7.2-5.1,10.4-9.7,10.4c-5.3,0-9.4-3.9-9.4-10.1c0-6.5,4.3-10.4,9.7-10.4
		C1332.8,116.8,1336.8,120.9,1336.8,126.9z M1321.2,127.1c0,4.3,2.5,7.5,5.9,7.5c3.5,0,6-3.2,6-7.6c0-3.4-1.7-7.5-5.9-7.5
		S1321.2,123.4,1321.2,127.1L1321.2,127.1z"/>
	<path class="st2" d="M1341.6,136.9V120h-2.7v-2.7h2.7v-0.9c-0.2-2.5,0.6-4.9,2.3-6.7c1.3-1.2,3-1.9,4.8-1.8c1,0,2.1,0.2,3,0.6
		l-0.5,2.7c-0.7-0.3-1.5-0.5-2.3-0.4c-3,0-3.8,2.7-3.8,5.7v1.1h4.7v2.7h-4.7v16.8L1341.6,136.9z"/>
	<path class="st2" d="M1365.9,111.7v5.6h5.1v2.7h-5.1v10.6c0,2.4,0.7,3.8,2.7,3.8c0.7,0,1.4-0.1,2.1-0.2l0.2,2.7
		c-1,0.4-2.1,0.5-3.2,0.5c-1.4,0.1-2.8-0.5-3.8-1.5c-1.1-1.5-1.6-3.3-1.4-5.1V120h-3v-2.7h3v-4.7L1365.9,111.7z"/>
	<path class="st2" d="M1375,108.1h3.6v12.2l0,0c0.6-1,1.5-1.9,2.5-2.5c1.1-0.6,2.4-1,3.6-1c2.6,0,6.8,1.7,6.8,8.4v11.6h-3.6v-11.2
		c0-3.1-1.2-5.8-4.5-5.8c-2.2,0-4.1,1.5-4.8,3.6c-0.2,0.5-0.3,1.1-0.3,1.7v11.8h-3.6L1375,108.1z"/>
	<path class="st2" d="M1399.4,127.7c-0.3,3.4,2.3,6.5,5.8,6.7c0.3,0,0.7,0,1,0c1.9,0.1,3.7-0.3,5.4-1l0.6,2.5
		c-2.1,0.9-4.3,1.3-6.5,1.2c-6,0-9.6-4-9.6-9.8c0-5.9,3.5-10.6,9.2-10.6c6.4,0,8.1,5.6,8.1,9.2c0,0.6,0,1.1-0.1,1.7L1399.4,127.7z
		 M1409.8,125.2c0-2.3-0.9-5.8-4.9-5.8c-3.6,0-5.2,3.4-5.5,5.8H1409.8z"/>
	<path class="st2" d="M1426.3,136.9v-27.2h3.8l8.7,13.8c1.8,2.8,3.5,5.8,4.9,8.9l0,0c-0.3-3.6-0.4-7-0.4-11.2v-11.4h3.4v27.2h-3.6
		l-8.7-13.8c-1.9-2.9-3.6-6-5.1-9.1h-0.1c0.2,3.4,0.3,6.7,0.3,11.2v11.6L1426.3,136.9z"/>
	<path class="st2" d="M1463.6,136.9l-0.3-2.5h-0.1c-1.4,1.9-3.6,3-6,2.9c-3.1,0.2-5.7-2.1-6-5.1c0-0.2,0-0.3,0-0.5
		c0-4.7,4.2-7.3,11.8-7.3V124c0.3-2.2-1.3-4.2-3.5-4.5c-0.3,0-0.6,0-0.9,0c-1.8,0-3.5,0.5-5.1,1.5l-0.8-2.4c1.9-1.1,4.2-1.7,6.4-1.7
		c6,0,7.4,4.1,7.4,8v7.3c0,1.6,0.1,3.1,0.3,4.7L1463.6,136.9z M1463.1,126.9c-3.9,0-8.3,0.6-8.3,4.4c-0.1,1.7,1.2,3.2,2.9,3.4
		c0.2,0,0.3,0,0.5,0c2.1,0,4.1-1.3,4.7-3.4c0.1-0.4,0.2-0.7,0.2-1.1L1463.1,126.9z"/>
	<path class="st2" d="M1476.4,111.7v5.6h5.1v2.7h-5.1v10.6c0,2.4,0.7,3.8,2.7,3.8c0.7,0,1.4-0.1,2.1-0.2l0.2,2.6
		c-1,0.4-2.1,0.5-3.2,0.5c-1.4,0.1-2.8-0.5-3.8-1.5c-1.1-1.5-1.6-3.3-1.4-5.1V120h-3v-2.7h3v-4.7L1476.4,111.7z"/>
	<path class="st2" d="M1489.4,111.8c0.1,1.2-0.8,2.1-2,2.2c-0.1,0-0.2,0-0.3,0c-1.2,0-2.1-0.9-2.1-2.1c0,0,0-0.1,0-0.1
		c0-1.2,0.9-2.2,2.1-2.2c0,0,0.1,0,0.1,0c1.2,0,2.1,0.9,2.2,2C1489.4,111.7,1489.4,111.7,1489.4,111.8z M1485.5,136.9v-19.5h3.6
		v19.5H1485.5z"/>
	<path class="st2" d="M1512.6,126.9c0,7.2-5.1,10.4-9.7,10.4c-5.3,0-9.4-3.9-9.4-10.1c0-6.5,4.3-10.4,9.7-10.4
		C1508.6,116.8,1512.6,120.9,1512.6,126.9z M1497.1,127.1c0,4.3,2.5,7.5,5.9,7.5c3.5,0,5.9-3.2,5.9-7.6c0-3.4-1.7-7.5-5.9-7.5
		C1499,119.5,1497.1,123.4,1497.1,127.1z"/>
	<path class="st2" d="M1517.1,122.6c0-2,0-3.7-0.2-5.3h3.1l0.2,3.2h0.1c1.3-2.3,3.8-3.8,6.5-3.7c2.7,0,6.9,1.7,6.9,8.3v11.7h-3.6
		v-11.3c0-3.2-1.2-5.8-4.5-5.8c-2.8,0.1-5.1,2.5-5.1,5.3v11.8h-3.6L1517.1,122.6z"/>
	<path class="st2" d="M1538.7,134.8c-0.1-1.3,0.9-2.5,2.2-2.5c0.1,0,0.1,0,0.2,0c1.4-0.1,2.6,1,2.7,2.4s-1,2.6-2.4,2.7
		c-1.4,0.1-2.6-1-2.7-2.4C1538.7,134.8,1538.7,134.8,1538.7,134.8z"/>
	<path class="st3" d="M963.1,173.3c0-0.6-0.2-1.2-0.7-1.6c-0.8-0.5-1.7-0.9-2.6-1.1c-1-0.3-2.1-0.7-3-1.3c-1.3-0.7-2.1-2-2.1-3.5
		c0-1.2,0.5-2.4,1.5-3.1c1.2-0.9,2.6-1.3,4-1.2c1,0,2,0.2,2.9,0.6c0.8,0.4,1.5,0.9,2,1.7c0.5,0.7,0.7,1.6,0.7,2.5h-2.7
		c0-0.7-0.2-1.4-0.8-1.9c-0.6-0.5-1.4-0.8-2.2-0.7c-0.7,0-1.4,0.2-2.1,0.6c-0.5,0.4-0.8,1-0.7,1.6c0,0.6,0.3,1.1,0.8,1.4
		c0.8,0.5,1.7,0.9,2.6,1.1c1,0.3,2,0.7,2.9,1.2c0.7,0.4,1.3,0.9,1.7,1.6c0.3,0.6,0.5,1.4,0.5,2.1c0,1.2-0.5,2.4-1.5,3.1
		c-1.2,0.8-2.6,1.2-4,1.1c-1.1,0-2.1-0.2-3.1-0.6c-0.9-0.4-1.6-0.9-2.2-1.7c-0.5-0.7-0.8-1.6-0.8-2.6h2.7c0,0.8,0.3,1.5,0.9,2.1
		c0.7,0.5,1.6,0.8,2.5,0.7c0.8,0.1,1.5-0.1,2.1-0.6C962.9,174.4,963.1,173.8,963.1,173.3z"/>
	<path class="st3" d="M978,171.6c0.1,1.5-0.3,3-1.2,4.3c-0.7,1.1-2,1.7-3.3,1.7c-1.1,0-2.3-0.4-3-1.2v5.5h-2.6v-16h2.4l0.1,1.2
		c0.8-0.9,1.9-1.4,3.1-1.4c1.3-0.1,2.6,0.5,3.4,1.6C977.7,168.4,978.1,170,978,171.6L978,171.6z M975.4,171.4c0-1-0.2-1.9-0.7-2.8
		c-0.4-0.7-1.2-1-2-1c-1-0.1-1.9,0.5-2.3,1.3v5.1c0.4,0.9,1.3,1.4,2.3,1.3c0.8,0,1.5-0.3,1.9-1C975.2,173.4,975.5,172.4,975.4,171.4
		L975.4,171.4z"/>
	<path class="st3" d="M985.3,177.5c-1.5,0.1-2.9-0.5-4-1.5c-1.1-1.1-1.6-2.6-1.5-4.1v-0.3c0-1.1,0.2-2.1,0.7-3.1
		c0.4-0.9,1.1-1.6,1.9-2.1c0.8-0.5,1.7-0.8,2.7-0.8c1.4-0.1,2.7,0.5,3.6,1.5c0.9,1.2,1.4,2.7,1.3,4.3v1h-7.6c0,0.8,0.4,1.6,1,2.3
		c0.6,0.6,1.3,0.9,2.1,0.8c1.1,0,2.2-0.5,2.9-1.4l1.4,1.3c-0.5,0.7-1.1,1.2-1.9,1.6C987.1,177.3,986.2,177.5,985.3,177.5z
		 M985,167.6c-0.6,0-1.3,0.3-1.7,0.7c-0.5,0.6-0.8,1.3-0.8,2.1h4.9v-0.2c0-0.7-0.3-1.4-0.7-2C986.3,167.8,985.7,167.5,985,167.6z"/>
	<path class="st3" d="M998.9,177.3c-0.2-0.3-0.3-0.7-0.3-1.1c-0.8,0.8-1.9,1.3-3,1.3c-1,0-2.1-0.3-2.8-1c-0.7-0.6-1.1-1.5-1.1-2.5
		c0-1.1,0.5-2.2,1.4-2.8c1.2-0.7,2.6-1.1,3.9-1h1.6v-0.8c0-0.5-0.2-1-0.5-1.4c-0.4-0.4-1-0.6-1.5-0.5c-0.5,0-1,0.1-1.4,0.5
		c-0.4,0.3-0.6,0.7-0.6,1.1h-2.6c0-0.6,0.2-1.3,0.6-1.8c0.4-0.6,1-1,1.7-1.3c0.8-0.3,1.6-0.5,2.4-0.5c1.2-0.1,2.3,0.3,3.2,1
		c0.8,0.7,1.3,1.8,1.2,2.9v5.2c0,0.9,0.1,1.8,0.5,2.6v0.2L998.9,177.3z M996,175.5c0.5,0,1-0.1,1.4-0.4c0.4-0.2,0.8-0.6,1-1v-2.2
		h-1.4c-0.8-0.1-1.5,0.1-2.2,0.5c-0.5,0.3-0.7,0.9-0.7,1.4c0,0.5,0.2,0.9,0.5,1.2C995.1,175.3,995.6,175.5,996,175.5z"/>
	<path class="st3" d="M1007.6,172.3l-1.1,1.2v3.8h-2.6v-16.4h2.6v9.5l0.8-1l3.2-3.6h3.1l-4.3,4.8l4.7,6.7h-3L1007.6,172.3z"/>
	<path class="st3" d="M1021.6,177.3v-9.6h-1.7v-1.9h1.7v-1.1c-0.1-1.1,0.3-2.2,1.1-3c0.8-0.7,1.9-1.1,3-1c0.5,0,1,0.1,1.4,0.2v2
		c-0.3,0-0.7,0-1,0c-0.9-0.1-1.8,0.6-1.9,1.5c0,0.1,0,0.3,0,0.4v1h2.3v1.9h-2.3v9.6L1021.6,177.3z"/>
	<path class="st3" d="M1034.5,168.1c-0.4,0-0.7,0-1.1,0c-1-0.1-2,0.5-2.4,1.4v7.9h-2.6v-11.6h2.5v1.3c0.5-0.9,1.5-1.5,2.6-1.5
		c0.3,0,0.6,0,0.9,0.2L1034.5,168.1z"/>
	<path class="st3" d="M1035.2,171.4c0-1.1,0.2-2.1,0.7-3.1c0.4-0.9,1.1-1.6,1.9-2.1c0.8-0.5,1.8-0.7,2.8-0.7
		c1.4-0.1,2.8,0.5,3.8,1.5c1,1.1,1.6,2.5,1.6,4v0.6c0,1.1-0.2,2.1-0.7,3c-0.4,0.9-1.1,1.6-1.9,2.1c-0.9,0.5-1.8,0.8-2.8,0.7
		c-1.5,0-2.9-0.6-3.9-1.7C1035.6,174.6,1035.1,173,1035.2,171.4L1035.2,171.4z M1037.8,171.6c-0.1,1,0.2,2,0.7,2.8
		c0.5,0.7,1.2,1,2.1,1c0.8,0,1.6-0.4,2.1-1c0.5-0.9,0.8-1.9,0.7-3c0-1-0.2-2-0.7-2.8c-0.5-0.7-1.2-1-2.1-1c-0.8,0-1.6,0.4-2,1
		C1038,169.5,1037.8,170.6,1037.8,171.6L1037.8,171.6z"/>
	<path class="st3" d="M1050.7,165.7l0.1,1.2c0.8-1,2.1-1.5,3.4-1.4c1.3-0.1,2.6,0.6,3.2,1.8c0.8-1.2,2.1-1.8,3.6-1.8
		c1.1-0.1,2.1,0.3,2.8,1.1c0.7,0.9,1,2,1,3.1v7.6h-2.6v-7.5c0.1-0.6-0.1-1.2-0.5-1.7c-0.4-0.4-1-0.6-1.6-0.5c-0.5,0-1,0.1-1.4,0.5
		c-0.4,0.3-0.7,0.8-0.8,1.2v7.9h-2.6v-7.6c0.1-1-0.6-1.9-1.6-2c-0.1,0-0.3,0-0.4,0c-0.9-0.1-1.8,0.4-2.2,1.3v8.4h-2.6v-11.5H1050.7z
		"/>
	<path class="st3" d="M1076,162.9v2.8h2.1v1.9h-2.1v6.4c0,0.3,0.1,0.7,0.3,1c0.3,0.2,0.6,0.3,0.9,0.3c0.3,0,0.6,0,0.9-0.1v1.9
		c-0.5,0.2-1.1,0.2-1.7,0.3c-2,0-3-1.1-3-3.4v-6.5h-1.9v-1.8h1.9v-2.8H1076z"/>
	<path class="st3" d="M1082.6,167c0.8-1,2-1.5,3.2-1.5c2.5,0,3.7,1.4,3.7,4.2v7.5h-2.6v-7.5c0.1-0.6-0.1-1.2-0.5-1.7
		c-0.4-0.4-1-0.5-1.5-0.5c-1,0-1.9,0.5-2.3,1.4v8.2h-2.6v-16.4h2.6V167z"/>
	<path class="st3" d="M1097.2,177.5c-1.5,0.1-2.9-0.5-4-1.5c-1.1-1.1-1.6-2.6-1.5-4.1v-0.3c0-1.1,0.2-2.1,0.7-3.1
		c0.8-1.8,2.6-2.9,4.6-2.9c1.4-0.1,2.7,0.5,3.7,1.5c0.9,1.2,1.4,2.7,1.3,4.3v1h-7.6c0,0.8,0.4,1.6,1,2.3c0.6,0.6,1.3,0.9,2.1,0.8
		c1.1,0,2.2-0.5,2.9-1.4l1.4,1.3c-0.5,0.7-1.1,1.2-1.9,1.6C1099,177.3,1098.1,177.5,1097.2,177.5z M1096.9,167.6
		c-0.6,0-1.3,0.3-1.7,0.7c-0.5,0.6-0.8,1.3-0.8,2.1h4.9v-0.2c0-0.7-0.3-1.4-0.7-2C1098.2,167.8,1097.6,167.5,1096.9,167.6z"/>
	<path class="st3" d="M1111.9,167c0.8-1,2-1.5,3.2-1.5c2.5,0,3.7,1.4,3.8,4.2v7.5h-2.6v-7.5c0.1-0.6-0.1-1.2-0.5-1.7
		c-0.4-0.4-1-0.5-1.5-0.5c-1,0-1.9,0.5-2.3,1.4v8.2h-2.6v-16.4h2.6L1111.9,167z"/>
	<path class="st3" d="M1126.6,177.5c-1.5,0.1-2.9-0.5-4-1.5c-1.1-1.1-1.6-2.6-1.5-4.1v-0.3c0-1.1,0.2-2.1,0.7-3.1
		c0.8-1.8,2.6-2.9,4.6-2.9c1.4-0.1,2.7,0.5,3.7,1.5c0.9,1.2,1.4,2.7,1.3,4.3v1h-7.5c0,0.8,0.4,1.6,0.9,2.3c0.6,0.6,1.3,0.9,2.1,0.8
		c1.1,0,2.2-0.5,2.9-1.4l1.4,1.3c-0.5,0.7-1.1,1.2-1.9,1.6C1128.4,177.3,1127.5,177.5,1126.6,177.5z M1126.3,167.6
		c-0.6,0-1.3,0.3-1.7,0.7c-0.5,0.6-0.8,1.3-0.8,2.1h4.9v-0.2c0-0.7-0.2-1.4-0.7-2C1127.5,167.8,1126.9,167.5,1126.3,167.6z"/>
	<path class="st3" d="M1140.1,177.3c-0.1-0.3-0.2-0.7-0.3-1.1c-0.8,0.8-1.9,1.3-3,1.3c-1,0-2.1-0.3-2.8-1c-0.7-0.6-1.1-1.5-1.1-2.5
		c0-1.1,0.5-2.2,1.4-2.8c1.2-0.7,2.5-1.1,3.9-1h1.7v-0.8c0-0.5-0.2-1-0.5-1.4c-0.4-0.4-1-0.6-1.5-0.5c-0.5,0-1,0.1-1.4,0.5
		c-0.4,0.3-0.6,0.7-0.6,1.1h-2.6c0-0.6,0.2-1.3,0.6-1.8c0.4-0.6,1-1,1.7-1.3c0.8-0.3,1.6-0.5,2.4-0.5c1.2-0.1,2.3,0.3,3.2,1
		c0.8,0.7,1.3,1.8,1.2,2.9v5.2c0,0.8,0.1,1.7,0.4,2.5v0.2H1140.1z M1137.3,175.5c0.5,0,1-0.1,1.4-0.4c0.4-0.2,0.8-0.6,1-1v-2.2h-1.4
		c-0.8-0.1-1.5,0.1-2.2,0.5c-0.5,0.3-0.7,0.8-0.7,1.4c0,0.5,0.2,0.9,0.5,1.2C1136.3,175.3,1136.8,175.5,1137.3,175.5z"/>
	<path class="st3" d="M1151.1,168.1c-0.4,0-0.7,0-1.1,0c-1-0.1-2,0.5-2.4,1.4v7.9h-2.6v-11.6h2.5v1.3c0.5-0.9,1.5-1.5,2.6-1.5
		c0.3,0,0.6,0,0.9,0.2L1151.1,168.1z"/>
	<path class="st3" d="M1156.5,162.9v2.8h2.1v1.9h-2.1v6.4c0,0.3,0.1,0.7,0.3,1c0.3,0.2,0.6,0.3,0.9,0.3c0.3,0,0.6,0,0.9-0.1v1.9
		c-0.5,0.2-1.1,0.2-1.7,0.3c-2,0-3-1.1-3-3.4v-6.5h-1.9v-1.8h1.9v-2.8H1156.5z"/>
	<path class="st3" d="M1172.9,177.3c-0.2-0.3-0.3-0.7-0.3-1.1c-1.6,1.6-4.1,1.7-5.9,0.3c-0.7-0.6-1.1-1.5-1.1-2.5
		c0-1.1,0.5-2.2,1.4-2.8c1.2-0.7,2.5-1.1,3.9-1h1.7v-0.8c0-0.5-0.2-1-0.5-1.4c-0.4-0.4-1-0.6-1.5-0.5c-0.5,0-1,0.1-1.4,0.5
		c-0.4,0.3-0.6,0.7-0.6,1.1h-2.6c0-0.6,0.2-1.3,0.6-1.8c0.4-0.6,1-1,1.7-1.3c0.8-0.3,1.6-0.5,2.4-0.5c1.2-0.1,2.3,0.3,3.2,1
		c0.8,0.7,1.3,1.8,1.2,2.9v5.2c0,0.8,0.1,1.7,0.4,2.5v0.2H1172.9z M1170.1,175.4c0.5,0,1-0.1,1.4-0.4c0.4-0.2,0.8-0.6,1-1v-2.2h-1.4
		c-0.8-0.1-1.5,0.1-2.2,0.5c-0.5,0.3-0.7,0.8-0.7,1.4c0,0.5,0.2,0.9,0.5,1.2C1169.1,175.3,1169.6,175.5,1170.1,175.4L1170.1,175.4z"
		/>
	<path class="st3" d="M1180.3,165.7v1.3c0.8-1,2.1-1.6,3.4-1.5c2.4,0,3.6,1.4,3.7,4.1v7.6h-2.6v-7.5c0.1-0.6-0.1-1.2-0.5-1.7
		c-0.4-0.4-1-0.6-1.5-0.5c-1,0-1.9,0.5-2.4,1.4v8.2h-2.6v-11.5H1180.3z"/>
	<path class="st3" d="M1189.6,171.4c-0.1-1.5,0.4-3,1.2-4.3c0.8-1.1,2-1.7,3.4-1.7c1.1,0,2.2,0.4,3,1.3v-5.9h2.6v16.4h-2.3l-0.1-1.2
		c-0.8,0.9-1.9,1.5-3.1,1.4c-1.3,0-2.6-0.6-3.4-1.7C1189.9,174.5,1189.5,172.9,1189.6,171.4z M1192.1,171.6c-0.1,1,0.2,1.9,0.7,2.8
		c0.4,0.6,1.2,1,1.9,1c1,0,1.9-0.5,2.3-1.4V169c-0.4-0.9-1.3-1.4-2.3-1.4c-0.8,0-1.5,0.3-2,1
		C1192.3,169.5,1192.1,170.6,1192.1,171.6z"/>
	<path class="st3" d="M1218,173.7l1.8-8h2.5l-3.1,11.5h-2.2l-2.5-7.9l-2.4,7.9h-2.1l-3-11.5h2.5l1.9,7.9l2.3-7.9h2L1218,173.7z"/>
	<path class="st3" d="M1224.1,162.7c0-0.7,0.5-1.4,1.3-1.4c0.1,0,0.1,0,0.2,0c0.4,0,0.8,0.1,1.1,0.4c0.3,0.3,0.4,0.6,0.4,1
		c0,0.4-0.1,0.7-0.4,1c-0.3,0.3-0.7,0.4-1.1,0.4c-0.4,0-0.8-0.1-1.1-0.4C1224.2,163.4,1224.1,163.1,1224.1,162.7z M1226.9,177.3
		h-2.6v-11.5h2.6V177.3z"/>
	<path class="st3" d="M1236.2,174.1c0-0.4-0.2-0.8-0.6-1.1c-0.6-0.3-1.2-0.5-1.9-0.6c-0.8-0.1-1.5-0.4-2.2-0.7
		c-1.2-0.4-1.9-1.5-1.9-2.7c0-1,0.5-1.9,1.2-2.5c0.9-0.7,2.1-1,3.2-1c1.2-0.1,2.4,0.3,3.4,1c0.8,0.6,1.3,1.6,1.3,2.7h-2.6
		c0-0.5-0.2-0.9-0.6-1.2c-0.4-0.3-0.9-0.5-1.5-0.5c-0.5,0-1,0.1-1.4,0.4c-0.4,0.2-0.6,0.6-0.5,1.1c0,0.4,0.2,0.7,0.5,0.9
		c0.6,0.3,1.3,0.5,2,0.7c0.8,0.2,1.6,0.4,2.4,0.8c0.5,0.3,1,0.6,1.3,1.1c0.3,0.5,0.4,1,0.4,1.6c0,1-0.5,2-1.3,2.5
		c-1,0.7-2.2,1-3.4,1c-0.9,0-1.7-0.2-2.5-0.5c-0.7-0.3-1.3-0.8-1.7-1.4c-0.4-0.6-0.6-1.2-0.6-1.9h2.5c0,0.6,0.3,1.1,0.7,1.4
		c0.5,0.3,1.1,0.5,1.7,0.5c0.5,0,1.1-0.1,1.5-0.4C1236,174.9,1236.2,174.5,1236.2,174.1z"/>
	<path class="st3" d="M1243.5,167c0.8-1,2-1.5,3.2-1.5c2.5,0,3.7,1.4,3.8,4.2v7.5h-2.6v-7.5c0.1-0.6-0.1-1.2-0.5-1.7
		c-0.4-0.4-1-0.5-1.5-0.5c-1,0-1.9,0.5-2.3,1.4v8.2h-2.6v-16.4h2.6V167z"/>
	<path class="st3" d="M1261.8,162.9v2.8h2v1.9h-2v6.4c0,0.3,0.1,0.7,0.3,1c0.3,0.2,0.6,0.3,0.9,0.3c0.3,0,0.6,0,0.9-0.1v1.9
		c-0.5,0.2-1.1,0.2-1.7,0.3c-2,0-3-1.1-3-3.4v-6.5h-1.9v-1.8h1.9v-2.8H1261.8z"/>
	<path class="st3" d="M1268.4,167c0.8-1,2-1.5,3.2-1.5c2.5,0,3.7,1.4,3.8,4.2v7.5h-2.6v-7.5c0.1-0.6-0.1-1.2-0.5-1.7
		c-0.4-0.4-1-0.5-1.5-0.5c-1,0-1.9,0.5-2.3,1.4v8.2h-2.6v-16.4h2.6L1268.4,167z"/>
	<path class="st3" d="M1283.1,177.5c-1.5,0.1-2.9-0.5-4-1.5c-1.1-1.1-1.6-2.6-1.5-4.1v-0.3c0-1.1,0.2-2.1,0.7-3.1
		c0.8-1.8,2.6-2.9,4.6-2.9c1.4-0.1,2.7,0.5,3.7,1.5c0.9,1.2,1.4,2.7,1.3,4.3v1h-7.5c0,0.8,0.4,1.6,0.9,2.3c0.6,0.6,1.3,0.9,2.1,0.8
		c1.1,0,2.2-0.5,2.9-1.4l1.4,1.3c-0.5,0.7-1.1,1.2-1.9,1.6C1284.9,177.3,1284,177.5,1283.1,177.5z M1282.8,167.6
		c-0.6,0-1.3,0.3-1.7,0.7c-0.5,0.6-0.8,1.3-0.8,2.1h4.9v-0.2c0-0.7-0.2-1.4-0.7-2C1284.1,167.8,1283.4,167.5,1282.8,167.6z"/>
	<path class="st3" d="M1304.4,170.7h-6.3v6.6h-2.7v-15.6h9.9v2.2h-7.2v4.6h6.3V170.7z"/>
	<path class="st3" d="M1313.8,177.3c-0.2-0.3-0.3-0.7-0.3-1.1c-0.8,0.8-1.9,1.3-3,1.3c-1,0-2.1-0.3-2.8-1c-0.7-0.6-1.1-1.5-1.1-2.5
		c0-1.1,0.5-2.2,1.4-2.8c1.2-0.7,2.5-1.1,3.9-1h1.7v-0.8c0-0.5-0.2-1-0.5-1.4c-0.4-0.4-1-0.6-1.5-0.5c-0.5,0-1,0.1-1.4,0.5
		c-0.4,0.3-0.6,0.7-0.6,1.1h-2.7c0-0.6,0.2-1.3,0.6-1.8c0.4-0.6,1-1,1.7-1.3c0.8-0.3,1.6-0.5,2.4-0.5c1.2-0.1,2.3,0.3,3.2,1
		c0.8,0.7,1.3,1.8,1.2,2.9v5.2c0,0.8,0.1,1.7,0.4,2.5v0.2H1313.8z M1310.9,175.4c0.5,0,1-0.1,1.4-0.4c0.4-0.2,0.8-0.6,1-1v-2.2h-1.4
		c-0.8-0.1-1.5,0.1-2.2,0.5c-0.5,0.3-0.7,0.9-0.7,1.4c0,0.5,0.2,0.9,0.5,1.2C1309.9,175.3,1310.4,175.5,1310.9,175.4L1310.9,175.4z"
		/>
	<path class="st3" d="M1322,162.9v2.8h2v1.9h-2v6.4c0,0.3,0.1,0.7,0.3,1c0.3,0.2,0.6,0.3,0.9,0.3c0.3,0,0.6,0,0.9-0.1v1.9
		c-0.5,0.2-1.1,0.2-1.7,0.3c-2,0-3-1.1-3-3.4v-6.5h-1.9v-1.8h1.9v-2.8H1322z"/>
	<path class="st3" d="M1328.5,167c0.8-1,2-1.5,3.2-1.5c2.5,0,3.7,1.4,3.8,4.2v7.5h-2.6v-7.5c0.1-0.6-0.1-1.2-0.5-1.7
		c-0.4-0.4-1-0.5-1.5-0.5c-1,0-1.9,0.5-2.3,1.4v8.2h-2.6v-16.4h2.6V167z"/>
	<path class="st3" d="M1343.3,177.5c-1.5,0.1-2.9-0.5-4-1.5c-1-1.1-1.6-2.6-1.5-4.1v-0.3c0-1.1,0.2-2.1,0.7-3.1
		c0.8-1.8,2.6-2.9,4.6-2.9c1.4-0.1,2.8,0.5,3.7,1.6c0.9,1.2,1.4,2.7,1.3,4.3v1h-7.6c0,0.8,0.4,1.7,1,2.3c0.6,0.6,1.3,0.9,2.1,0.8
		c1.1,0,2.2-0.5,2.9-1.4l1.4,1.3c-0.5,0.7-1.1,1.2-1.9,1.6C1345.1,177.3,1344.2,177.5,1343.3,177.5z M1343,167.6
		c-0.6,0-1.3,0.3-1.7,0.7c-0.5,0.6-0.8,1.3-0.8,2.1h4.9v-0.2c0-0.7-0.2-1.4-0.7-2C1344.2,167.8,1343.6,167.5,1343,167.6L1343,167.6z
		"/>
	<path class="st3" d="M1355.9,168.1c-0.4,0-0.7,0-1.1,0c-1-0.1-2,0.5-2.4,1.4v7.9h-2.6v-11.6h2.5v1.3c0.5-0.9,1.5-1.5,2.6-1.5
		c0.3,0,0.6,0,0.9,0.2L1355.9,168.1z"/>
	<path class="st3" d="M1362.5,171.4c0-1.1,0.2-2.1,0.7-3.1c0.4-0.9,1.1-1.6,2-2.1c0.9-0.5,1.8-0.7,2.8-0.7c1.4-0.1,2.8,0.5,3.8,1.5
		c1,1.1,1.6,2.5,1.6,4v0.6c0,1.1-0.2,2.1-0.7,3c-0.4,0.9-1.1,1.6-1.9,2.1c-0.9,0.5-1.8,0.8-2.8,0.7c-1.5,0-2.9-0.6-3.9-1.7
		C1363,174.6,1362.5,173,1362.5,171.4L1362.5,171.4z M1365.1,171.6c-0.1,1,0.2,2,0.7,2.8c0.5,0.7,1.2,1,2.1,1c0.8,0,1.6-0.4,2.1-1
		c0.5-0.9,0.8-1.9,0.7-3c0.1-1-0.2-2-0.8-2.8c-0.5-0.7-1.2-1-2-1c-0.8,0-1.6,0.4-2,1C1365.3,169.5,1365.1,170.5,1365.1,171.6
		L1365.1,171.6z"/>
	<path class="st3" d="M1376.4,177.3v-9.6h-1.7v-1.9h1.7v-1.1c-0.1-1.1,0.3-2.2,1.1-3c0.8-0.7,1.9-1.1,3-1c0.5,0,1,0.1,1.4,0.2v2
		c-0.3,0-0.7,0-1,0c-1.2,0-1.9,0.6-1.9,1.9v1h2.3v1.9h-2.3v9.6L1376.4,177.3z"/>
	<path class="st3" d="M1391.9,162.9v2.8h2v1.9h-2v6.4c0,0.3,0.1,0.7,0.3,1c0.3,0.2,0.6,0.3,0.9,0.3c0.3,0,0.6,0,0.9-0.1v1.9
		c-0.5,0.2-1.1,0.2-1.7,0.3c-2,0-3-1.1-3-3.4v-6.5h-1.9v-1.8h1.9v-2.8H1391.9z"/>
	<path class="st3" d="M1398.5,167c0.8-1,2-1.5,3.2-1.5c2.5,0,3.7,1.4,3.8,4.2v7.5h-2.6v-7.5c0.1-0.6-0.1-1.2-0.5-1.7
		c-0.4-0.4-1-0.5-1.5-0.5c-1,0-1.9,0.5-2.3,1.4v8.2h-2.6v-16.4h2.6V167z"/>
	<path class="st3" d="M1413.2,177.5c-1.5,0.1-2.9-0.5-4-1.5c-1-1.1-1.6-2.6-1.5-4.1v-0.3c0-1.1,0.2-2.1,0.7-3.1
		c0.8-1.8,2.6-2.9,4.6-2.9c1.4-0.1,2.7,0.5,3.7,1.5c0.9,1.2,1.4,2.7,1.3,4.3v1h-7.6c0,0.8,0.4,1.7,1,2.3c0.6,0.6,1.3,0.9,2.1,0.8
		c1.1,0,2.2-0.5,2.9-1.4l1.4,1.3c-0.5,0.7-1.1,1.2-1.9,1.6C1415,177.3,1414.1,177.5,1413.2,177.5z M1412.9,167.6
		c-0.6,0-1.3,0.3-1.7,0.7c-0.5,0.6-0.8,1.3-0.8,2.1h4.9v-0.2c0-0.7-0.2-1.4-0.7-2C1414.2,167.8,1413.5,167.5,1412.9,167.6z"/>
	<path class="st3" d="M1437.9,177.3h-2.7l-6.9-11v11h-2.7v-15.6h2.7l7,11.1v-11.1h2.7V177.3z"/>
	<path class="st3" d="M1447.7,177.3c-0.1-0.3-0.2-0.7-0.3-1.1c-1.6,1.6-4.1,1.7-5.9,0.3c-0.7-0.6-1.1-1.5-1.1-2.5
		c0-1.1,0.5-2.2,1.4-2.8c1.2-0.7,2.5-1.1,3.9-1h1.6v-0.8c0.1-1-0.6-1.9-1.6-2c-0.1,0-0.3,0-0.4,0c-0.5,0-1,0.1-1.5,0.5
		c-0.4,0.3-0.6,0.7-0.6,1.1h-2.6c0-0.6,0.2-1.3,0.6-1.8c0.4-0.6,1-1,1.7-1.3c0.8-0.3,1.6-0.5,2.4-0.5c1.2-0.1,2.3,0.3,3.2,1
		c0.8,0.7,1.3,1.8,1.2,2.9v5.2c0,0.8,0.1,1.7,0.4,2.5v0.2H1447.7z M1444.9,175.5c0.5,0,1-0.1,1.4-0.4c0.4-0.2,0.8-0.6,1-1v-2.2h-1.4
		c-0.8-0.1-1.5,0.1-2.2,0.5c-0.5,0.3-0.7,0.9-0.7,1.4c0,0.5,0.2,0.9,0.5,1.2C1443.9,175.3,1444.4,175.5,1444.9,175.5z"/>
	<path class="st3" d="M1455.9,162.9v2.8h2.1v1.9h-2.1v6.4c0,0.3,0.1,0.7,0.3,1c0.3,0.2,0.6,0.3,0.9,0.3c0.3,0,0.6,0,0.9-0.1v1.9
		c-0.5,0.2-1.1,0.2-1.7,0.3c-2,0-3-1.1-3-3.4v-6.5h-1.9v-1.8h1.9v-2.8H1455.9z"/>
	<path class="st3" d="M1460,162.7c0-0.4,0.1-0.7,0.4-1c0.3-0.3,0.7-0.4,1.1-0.4c0.4,0,0.8,0.1,1.1,0.4c0.3,0.3,0.4,0.6,0.4,1
		c0,0.4-0.1,0.7-0.4,1c-0.3,0.3-0.7,0.4-1.1,0.4c-0.4,0-0.8-0.1-1.1-0.4C1460.1,163.4,1460,163.1,1460,162.7z M1462.7,177.3h-2.6
		v-11.5h2.7L1462.7,177.3z"/>
	<path class="st3" d="M1465.1,171.4c0-1.1,0.2-2.1,0.7-3.1c0.4-0.9,1.1-1.6,1.9-2.1c0.8-0.5,1.8-0.7,2.8-0.7
		c1.4-0.1,2.8,0.5,3.8,1.5c1,1.1,1.6,2.5,1.6,4v0.6c0,1.1-0.2,2.1-0.7,3c-0.4,0.9-1.1,1.6-1.9,2.1c-0.9,0.5-1.8,0.8-2.8,0.7
		c-1.5,0-2.9-0.6-3.9-1.7C1465.5,174.6,1465,173,1465.1,171.4L1465.1,171.4z M1467.7,171.6c-0.1,1,0.2,2,0.7,2.8
		c0.5,0.7,1.2,1,2.1,1c0.8,0,1.6-0.4,2-1c0.5-0.9,0.8-1.9,0.7-3c0.1-1-0.2-2-0.8-2.8c-0.5-0.7-1.2-1-2.1-1c-0.8,0-1.6,0.4-2,1
		C1467.8,169.5,1467.6,170.5,1467.7,171.6L1467.7,171.6z"/>
	<path class="st3" d="M1480.4,165.7v1.3c0.8-1,2.1-1.6,3.4-1.5c2.4,0,3.6,1.4,3.7,4.1v7.6h-2.6v-7.5c0.1-0.6-0.1-1.2-0.5-1.7
		c-0.4-0.4-1-0.6-1.5-0.5c-1,0-1.9,0.5-2.3,1.4v8.2h-2.6v-11.5H1480.4z"/>
	<path class="st3" d="M954.9,203.5V188h5.3c1.4-0.1,2.8,0.3,4,1.1c0.9,0.8,1.5,1.9,1.4,3.1c0,0.7-0.2,1.4-0.6,1.9
		c-0.4,0.6-1,1.1-1.7,1.3c0.8,0.2,1.5,0.6,2,1.3c0.5,0.7,0.7,1.5,0.7,2.3c0.1,1.3-0.4,2.5-1.4,3.4c-1.2,0.9-2.6,1.3-4,1.2
		L954.9,203.5z M957.7,194.5h2.6c0.7,0,1.4-0.2,2-0.6c0.5-0.4,0.8-1,0.7-1.7c0.1-0.6-0.2-1.3-0.7-1.7c-0.6-0.4-1.3-0.6-2.1-0.5h-2.6
		V194.5z M957.7,196.5v4.9h3c0.7,0,1.4-0.2,2-0.6c0.5-0.4,0.7-1,0.7-1.7c0.2-1.2-0.7-2.3-1.9-2.5c-0.2,0-0.4,0-0.6,0L957.7,196.5z"
		/>
	<path class="st3" d="M975.4,203.5c-0.2-0.3-0.3-0.7-0.3-1.1c-0.8,0.8-1.9,1.3-3,1.3c-1,0-2.1-0.3-2.8-1c-0.7-0.6-1.1-1.5-1.1-2.5
		c0-1.1,0.5-2.2,1.4-2.8c1.2-0.7,2.6-1.1,3.9-1h1.6v-0.8c0-0.5-0.2-1-0.5-1.4c-0.4-0.4-1-0.6-1.5-0.5c-0.5,0-1,0.1-1.4,0.5
		c-0.4,0.3-0.6,0.7-0.6,1.1h-2.6c0-0.6,0.2-1.3,0.6-1.8c0.4-0.6,1-1,1.7-1.3c0.8-0.3,1.6-0.5,2.4-0.5c1.2-0.1,2.3,0.3,3.2,1
		c0.8,0.7,1.3,1.8,1.2,2.9v5.2c0,0.8,0.1,1.7,0.4,2.5v0.2L975.4,203.5z M972.6,201.7c0.5,0,1-0.1,1.5-0.4c0.4-0.2,0.8-0.6,1-1v-2.2
		h-1.4c-0.8-0.1-1.5,0.1-2.2,0.5c-0.5,0.3-0.7,0.9-0.7,1.4c0,0.5,0.2,0.9,0.5,1.2C971.6,201.5,972.1,201.7,972.6,201.7z"/>
	<path class="st3" d="M982.8,192v1.3c0.8-1,2.1-1.6,3.4-1.5c2.4,0,3.6,1.4,3.7,4.1v7.6h-2.6V196c0.1-0.6-0.1-1.2-0.5-1.7
		c-0.4-0.4-1-0.6-1.5-0.5c-1,0-1.9,0.5-2.3,1.4v8.2h-2.5v-11.6L982.8,192z"/>
	<path class="st3" d="M992.1,197.7c-0.1-1.5,0.4-3.1,1.3-4.3c0.8-1.1,2-1.7,3.4-1.7c1.2-0.1,2.3,0.5,3.1,1.4l0.1-1.2h2.3v11.2
		c0.1,1.3-0.4,2.7-1.4,3.6c-1.1,0.9-2.4,1.4-3.8,1.3c-0.9,0-1.7-0.2-2.5-0.5c-0.7-0.3-1.4-0.8-1.9-1.4l1.2-1.6
		c0.7,0.9,1.8,1.4,3,1.4c0.7,0,1.5-0.2,2-0.7c0.5-0.5,0.8-1.3,0.7-2.1v-0.8c-0.8,0.8-1.9,1.3-3,1.2c-1.3,0-2.6-0.6-3.4-1.7
		C992.4,200.7,992,199.2,992.1,197.7z M994.6,197.9c0,1,0.2,1.9,0.7,2.7c0.4,0.7,1.2,1,2,1c1,0,1.9-0.5,2.3-1.3v-5.1
		c-0.4-0.9-1.3-1.4-2.3-1.3c-0.8,0-1.5,0.3-2,1C994.8,195.8,994.6,196.8,994.6,197.9L994.6,197.9z"/>
	<path class="st3" d="M1011.8,203.5c-0.2-0.3-0.3-0.7-0.3-1.1c-0.8,0.8-1.9,1.3-3,1.3c-1,0-2.1-0.3-2.8-1c-0.7-0.6-1.1-1.5-1.1-2.5
		c0-1.1,0.5-2.2,1.4-2.8c1.2-0.7,2.6-1.1,3.9-1h1.6v-0.8c0-0.5-0.2-1-0.5-1.4c-0.4-0.4-1-0.6-1.5-0.5c-0.5,0-1,0.1-1.5,0.5
		c-0.4,0.3-0.6,0.7-0.6,1.1h-2.6c0-0.6,0.2-1.3,0.6-1.8c0.4-0.6,1-1,1.7-1.3c0.8-0.3,1.6-0.5,2.4-0.5c1.2-0.1,2.3,0.3,3.2,1
		c0.8,0.7,1.3,1.8,1.2,2.9v5.2c0,0.8,0.1,1.7,0.4,2.5v0.2L1011.8,203.5z M1009,201.7c0.5,0,1-0.1,1.4-0.4c0.4-0.2,0.8-0.6,1-1v-2.2
		h-1.4c-0.8-0.1-1.5,0.1-2.2,0.5c-0.5,0.3-0.7,0.9-0.7,1.4c0,0.5,0.2,0.9,0.5,1.2C1008,201.5,1008.5,201.7,1009,201.7z"/>
	<path class="st3" d="M1026.9,197.9c0.1,1.5-0.3,3-1.2,4.3c-0.8,1.1-2,1.7-3.4,1.6c-1.2,0.1-2.4-0.5-3.2-1.5l-0.1,1.2h-2.3v-16.4
		h2.6v6c0.8-0.9,1.9-1.4,3-1.3c1.3-0.1,2.6,0.5,3.4,1.6c0.9,1.3,1.3,2.8,1.2,4.4L1026.9,197.9z M1024.3,197.6c0.1-1-0.2-2-0.7-2.8
		c-0.4-0.6-1.2-1-1.9-0.9c-1-0.1-2,0.5-2.4,1.5v4.8c0.4,1,1.4,1.6,2.4,1.5c0.7,0,1.5-0.3,1.9-0.9c0.5-0.8,0.7-1.8,0.7-2.7
		L1024.3,197.6z"/>
	<path class="st3" d="M1036,203.5c-0.1-0.3-0.2-0.7-0.3-1.1c-1.6,1.6-4.1,1.7-5.9,0.3c-0.7-0.6-1.1-1.5-1.1-2.5
		c0-1.1,0.5-2.2,1.4-2.8c1.2-0.7,2.5-1.1,3.9-1h1.6v-0.8c0.1-1-0.6-1.9-1.6-2c-0.1,0-0.3,0-0.4,0c-0.5,0-1,0.1-1.5,0.5
		c-0.4,0.3-0.6,0.7-0.6,1.1h-2.6c0-0.6,0.2-1.3,0.6-1.8c0.4-0.6,1-1,1.7-1.3c0.8-0.3,1.6-0.5,2.4-0.5c1.2-0.1,2.3,0.3,3.2,1
		c0.8,0.7,1.3,1.8,1.2,2.9v5.2c0,0.8,0.1,1.7,0.4,2.5v0.2L1036,203.5z M1033.1,201.7c0.5,0,1-0.1,1.4-0.4c0.4-0.2,0.8-0.6,1-1v-2.2
		h-1.4c-0.8-0.1-1.5,0.1-2.2,0.5c-0.5,0.3-0.7,0.9-0.7,1.4c0,0.5,0.2,0.9,0.5,1.2C1032.2,201.5,1032.7,201.7,1033.1,201.7
		L1033.1,201.7z"/>
	<path class="st3" d="M1043.3,192v1.3c0.8-1,2.1-1.6,3.4-1.5c2.4,0,3.6,1.4,3.7,4.1v7.6h-2.6V196c0.1-0.6-0.1-1.2-0.5-1.7
		c-0.4-0.4-1-0.6-1.6-0.5c-1,0-1.9,0.5-2.3,1.4v8.2h-2.6v-11.6L1043.3,192z"/>
	<path class="st3" d="M1052.6,197.7c-0.1-1.5,0.4-3,1.2-4.3c0.8-1.1,2-1.7,3.4-1.7c1.1,0,2.2,0.4,3,1.3V187h2.6v16.4h-2.3l-0.1-1.2
		c-0.8,0.9-1.9,1.5-3.1,1.4c-1.3,0-2.5-0.6-3.3-1.7C1053,200.7,1052.6,199.2,1052.6,197.7z M1055.2,197.9c-0.1,1,0.2,1.9,0.7,2.8
		c0.4,0.6,1.2,1,1.9,1c1,0,1.9-0.5,2.3-1.4v-4.9c-0.4-0.9-1.3-1.4-2.3-1.4c-0.8,0-1.5,0.3-2,1
		C1055.4,195.8,1055.1,196.8,1055.2,197.9z"/>
	<path class="st3" d="M1068,193.2c0.8-1,2-1.5,3.2-1.5c2.5,0,3.7,1.4,3.8,4.2v7.5h-2.6v-7.5c0.1-0.6-0.1-1.2-0.5-1.7
		c-0.4-0.4-1-0.5-1.5-0.5c-1,0-1.9,0.5-2.3,1.4v8.2h-2.5v-16.4h2.6L1068,193.2z"/>
	<path class="st3" d="M1084.6,202.4c-0.8,0.9-2,1.4-3.2,1.3c-1.1,0.1-2.1-0.3-2.8-1.1c-0.7-0.9-1.1-2-1-3.2V192h2.6v7.5
		c0,1.5,0.6,2.2,1.8,2.2c1,0.1,2.1-0.4,2.6-1.3V192h2.6v11.6h-2.4L1084.6,202.4z"/>
	<path class="st3" d="M1103.6,199.5c0-0.6-0.2-1.2-0.7-1.6c-0.8-0.5-1.7-0.9-2.6-1.1c-1-0.3-2-0.7-3-1.3c-1.3-0.7-2.1-2-2.1-3.5
		c0-1.2,0.6-2.4,1.5-3.1c1.1-0.9,2.6-1.3,4-1.2c1,0,2,0.2,2.9,0.6c0.8,0.4,1.5,0.9,2,1.7c0.5,0.7,0.7,1.6,0.7,2.5h-2.7
		c0-0.7-0.2-1.4-0.8-1.9c-0.6-0.5-1.4-0.7-2.2-0.7c-0.7,0-1.5,0.1-2.1,0.6c-0.5,0.4-0.8,1-0.7,1.6c0,0.6,0.3,1.1,0.8,1.4
		c0.8,0.5,1.7,0.9,2.6,1.1c1,0.3,2,0.7,2.9,1.2c0.7,0.4,1.3,0.9,1.7,1.6c0.3,0.6,0.5,1.4,0.5,2.1c0,1.2-0.5,2.4-1.5,3.1
		c-1.2,0.8-2.6,1.2-4,1.1c-1.1,0-2.1-0.2-3.1-0.6c-0.9-0.4-1.6-0.9-2.2-1.7c-0.5-0.7-0.8-1.6-0.8-2.6h2.7c0,0.8,0.3,1.5,0.9,2.1
		c0.7,0.5,1.6,0.8,2.5,0.7c0.8,0.1,1.5-0.1,2.1-0.6C1103.4,200.7,1103.6,200.1,1103.6,199.5z"/>
	<path class="st3" d="M1111,193.2c0.8-0.9,2-1.5,3.2-1.5c2.5,0,3.7,1.4,3.8,4.2v7.5h-2.6v-7.5c0.1-0.6-0.1-1.2-0.5-1.7
		c-0.4-0.4-1-0.5-1.5-0.5c-1,0-1.9,0.5-2.3,1.4v8.2h-2.6v-16.4h2.6V193.2z"/>
	<path class="st3" d="M1125.7,203.7c-1.5,0.1-2.9-0.5-4-1.5c-1.1-1.1-1.6-2.6-1.5-4.1v-0.3c0-1.1,0.2-2.1,0.7-3.1
		c0.4-0.9,1.1-1.6,1.9-2.1c0.8-0.5,1.7-0.8,2.7-0.8c1.4-0.1,2.7,0.5,3.7,1.5c0.9,1.2,1.4,2.7,1.3,4.3v1h-7.6c0,0.8,0.4,1.6,1,2.3
		c0.6,0.6,1.3,0.9,2.1,0.8c1.1,0,2.2-0.5,2.9-1.4l1.4,1.3c-0.4,0.7-1.1,1.3-1.9,1.7C1127.4,203.6,1126.6,203.8,1125.7,203.7z
		 M1125.3,193.8c-0.6,0-1.3,0.3-1.7,0.7c-0.5,0.6-0.8,1.3-0.8,2.1h5v-0.2c0-0.7-0.3-1.4-0.7-2C1126.6,194,1126,193.8,1125.3,193.8z"
		/>
	<path class="st3" d="M1132.3,188.9c0-0.7,0.5-1.4,1.3-1.4c0.1,0,0.1,0,0.2,0c0.4,0,0.8,0.1,1.1,0.4c0.3,0.3,0.4,0.6,0.4,1
		c0,0.4-0.1,0.7-0.4,1c-0.3,0.3-0.7,0.4-1.1,0.4c-0.4,0-0.8-0.1-1.1-0.4C1132.4,189.7,1132.3,189.3,1132.3,188.9z M1135.1,203.5
		h-2.6v-11.6h2.6V203.5z"/>
	<path class="st3" d="M1141.7,198.6l-1.2,1.2v3.8h-2.6v-16.4h2.6v9.5l0.8-1l3.2-3.6h3.1l-4.3,4.8l4.7,6.7h-3L1141.7,198.6z"/>
	<path class="st3" d="M1151.9,193.2c0.8-0.9,2-1.5,3.2-1.5c2.5,0,3.7,1.4,3.8,4.2v7.5h-2.6v-7.5c0.1-0.6-0.1-1.2-0.5-1.7
		c-0.4-0.4-1-0.5-1.5-0.5c-1,0-1.9,0.5-2.3,1.4v8.2h-2.6v-16.4h2.6L1151.9,193.2z"/>
	<path class="st3" d="M1170.7,188l4.5,11.9l4.5-11.9h3.5v15.6h-2.7v-5.1l0.3-6.9l-4.6,12h-1.9l-4.6-12l0.3,6.9v5.1h-2.7V188
		L1170.7,188z"/>
	<path class="st3" d="M1193.1,202.4c-0.8,0.9-2,1.4-3.2,1.3c-1.1,0.1-2.1-0.3-2.8-1.1c-0.7-0.9-1-2-1-3.2V192h2.6v7.5
		c0,1.5,0.6,2.2,1.8,2.2c1,0.1,2.1-0.4,2.6-1.3V192h2.6v11.6h-2.4L1193.1,202.4z"/>
	<path class="st3" d="M1201,192v12.6c0.1,1-0.2,2-0.9,2.7c-0.7,0.7-1.6,1-2.6,0.9c-0.5,0-0.9-0.1-1.4-0.2V206
		c0.3,0.1,0.6,0.1,0.9,0.1c0.9,0,1.3-0.5,1.3-1.4V192H1201z M1198.1,188.9c0-0.4,0.1-0.7,0.4-1c0.3-0.3,0.7-0.4,1.1-0.4
		c0.7-0.1,1.4,0.5,1.5,1.2c0,0.1,0,0.1,0,0.2c0,0.4-0.1,0.7-0.4,1c-0.3,0.3-0.7,0.4-1.1,0.4c-0.4,0-0.8-0.1-1.1-0.4
		C1198.3,189.7,1198.1,189.3,1198.1,188.9z"/>
	<path class="st3" d="M1203.7,188.9c0-0.7,0.5-1.4,1.3-1.4c0.1,0,0.1,0,0.2,0c0.4,0,0.8,0.1,1.1,0.4c0.3,0.3,0.4,0.6,0.4,1
		c0,0.4-0.1,0.7-0.4,1c-0.3,0.3-0.7,0.4-1.1,0.4c-0.4,0-0.8-0.1-1.1-0.4C1203.9,189.7,1203.7,189.3,1203.7,188.9z M1206.5,203.5
		h-2.6v-11.6h2.6V203.5z"/>
	<path class="st3" d="M1219.5,197.9c0.1,1.5-0.3,3-1.2,4.3c-0.8,1.1-2,1.7-3.4,1.6c-1.2,0.1-2.4-0.5-3.2-1.5l-0.1,1.2h-2.3v-16.4
		h2.7v6c0.8-0.9,1.9-1.4,3-1.3c1.3-0.1,2.6,0.5,3.4,1.6c0.9,1.3,1.3,2.8,1.2,4.4L1219.5,197.9z M1216.9,197.6c0.1-1-0.2-2-0.7-2.8
		c-0.4-0.6-1.2-1-1.9-0.9c-1-0.1-2,0.5-2.4,1.5v4.8c0.4,1,1.4,1.6,2.4,1.5c0.7,0,1.4-0.3,1.9-0.9c0.5-0.8,0.7-1.8,0.7-2.7V197.6z"/>
	<path class="st3" d="M1228.6,202.4c-0.8,0.9-2,1.4-3.2,1.3c-1.1,0.1-2.1-0.3-2.8-1.1c-0.7-0.9-1-2-1-3.2V192h2.6v7.5
		c0,1.5,0.6,2.2,1.8,2.2c1,0.1,2.1-0.4,2.6-1.3V192h2.6v11.6h-2.4L1228.6,202.4z"/>
	<path class="st3" d="M1239.9,194.3c-0.4,0-0.7,0-1.1,0c-1-0.1-2,0.5-2.4,1.4v7.9h-2.5V192h2.5v1.3c0.5-0.9,1.5-1.5,2.6-1.5
		c0.3,0,0.6,0,0.9,0.2L1239.9,194.3z"/>
	<path class="st3" d="M1252.9,197.5h-3v6h-2.7V188h5.5c1.5-0.1,3,0.3,4.2,1.2c1,0.9,1.5,2.2,1.5,3.5c0,0.9-0.2,1.8-0.8,2.6
		c-0.5,0.8-1.3,1.3-2.1,1.7l3.5,6.5v0.1h-2.9L1252.9,197.5z M1249.9,195.4h2.8c0.8,0.1,1.5-0.2,2.1-0.7c0.5-0.5,0.8-1.2,0.8-1.9
		c0-0.7-0.2-1.4-0.7-1.9c-0.6-0.5-1.4-0.7-2.1-0.7h-2.9L1249.9,195.4z"/>
	<path class="st3" d="M1267.5,203.5c-0.2-0.3-0.3-0.7-0.3-1.1c-0.8,0.8-1.9,1.3-3,1.3c-1,0-2.1-0.3-2.8-1c-0.7-0.6-1.1-1.5-1.1-2.5
		c0-1.1,0.5-2.2,1.4-2.8c1.2-0.7,2.5-1.1,3.9-1h1.6v-0.8c0-0.5-0.2-1-0.5-1.4c-0.4-0.4-1-0.6-1.5-0.5c-0.5,0-1,0.1-1.4,0.5
		c-0.4,0.3-0.6,0.7-0.6,1.1h-2.6c0-0.6,0.2-1.3,0.6-1.8c0.4-0.6,1-1,1.7-1.3c0.8-0.3,1.6-0.5,2.4-0.5c1.2-0.1,2.3,0.3,3.2,1
		c0.8,0.7,1.3,1.8,1.2,2.9v5.2c0,0.8,0.1,1.7,0.4,2.5v0.2L1267.5,203.5z M1264.7,201.7c0.5,0,1-0.1,1.4-0.4c0.4-0.2,0.8-0.6,1-1
		v-2.2h-1.4c-0.8-0.1-1.5,0.1-2.2,0.5c-0.5,0.3-0.7,0.8-0.7,1.4c0,0.5,0.2,0.9,0.5,1.2C1263.7,201.5,1264.2,201.7,1264.7,201.7z"/>
	<path class="st3" d="M1275,193.2c0.8-1,2-1.5,3.2-1.5c2.5,0,3.7,1.4,3.7,4.2v7.5h-2.7v-7.5c0.1-0.6-0.1-1.2-0.5-1.7
		c-0.4-0.4-1-0.5-1.5-0.5c-1,0-1.9,0.5-2.3,1.4v8.2h-2.5v-16.4h2.6V193.2z"/>
	<path class="st3" d="M1287,192v1.2c0.8-1,2.1-1.5,3.4-1.4c1.3-0.1,2.6,0.5,3.2,1.7c0.8-1.1,2.2-1.8,3.6-1.7
		c1.1-0.1,2.1,0.3,2.8,1.1c0.7,0.9,1,2,1,3.1v7.6h-2.6V196c0.1-0.6-0.1-1.2-0.5-1.7c-0.4-0.4-1-0.6-1.6-0.5c-0.5,0-1,0.1-1.4,0.5
		c-0.4,0.3-0.7,0.8-0.8,1.2v7.9h-2.6v-7.6c0.1-1-0.6-1.9-1.6-2c-0.1,0-0.3,0-0.4,0c-0.9-0.1-1.8,0.4-2.2,1.3v8.4h-2.6v-11.6
		L1287,192z"/>
	<path class="st3" d="M1310.5,203.5c-0.2-0.3-0.3-0.7-0.3-1.1c-0.8,0.8-1.9,1.3-3,1.3c-1,0-2.1-0.3-2.8-1c-0.7-0.6-1.1-1.5-1.1-2.5
		c0-1.1,0.5-2.2,1.4-2.8c1.2-0.7,2.5-1.1,3.9-1h1.7v-0.8c0-0.5-0.2-1-0.5-1.4c-0.4-0.4-1-0.6-1.5-0.5c-0.5,0-1,0.1-1.4,0.5
		c-0.4,0.3-0.6,0.7-0.6,1.1h-2.6c0-0.6,0.2-1.3,0.6-1.8c0.4-0.6,1-1,1.7-1.3c0.8-0.3,1.6-0.5,2.4-0.5c1.2-0.1,2.3,0.3,3.2,1
		c0.8,0.7,1.3,1.8,1.2,2.9v5.2c0,0.8,0.1,1.7,0.4,2.5v0.2L1310.5,203.5z M1307.7,201.7c0.5,0,1-0.1,1.4-0.4c0.4-0.2,0.8-0.6,1-1
		v-2.2h-1.4c-0.8-0.1-1.5,0.1-2.2,0.5c-0.5,0.3-0.7,0.9-0.7,1.4c0,0.5,0.2,0.9,0.5,1.2C1306.7,201.5,1307.2,201.7,1307.7,201.7z"/>
	<path class="st3" d="M1317.9,192v1.3c0.8-1,2.1-1.6,3.4-1.5c2.4,0,3.6,1.4,3.7,4.1v7.6h-2.5V196c0.1-0.6-0.1-1.2-0.5-1.7
		c-0.4-0.4-1-0.6-1.5-0.5c-1,0-1.9,0.5-2.3,1.4v8.2h-2.6v-11.6L1317.9,192z"/>
	<path class="st3" d="M1332.6,197.6c0-1.1,0.2-2.1,0.7-3.1c0.4-0.9,1.1-1.6,1.9-2.1c0.8-0.5,1.8-0.7,2.8-0.7
		c1.4-0.1,2.8,0.5,3.8,1.5c1,1.1,1.6,2.5,1.6,4v0.6c0,1.1-0.2,2.1-0.7,3c-0.4,0.9-1.1,1.6-1.9,2.1c-0.9,0.5-1.8,0.8-2.8,0.7
		c-1.5,0-2.9-0.6-3.9-1.7C1333,200.8,1332.5,199.3,1332.6,197.6L1332.6,197.6z M1335.2,197.9c-0.1,1,0.2,2,0.7,2.8
		c0.8,1.1,2.5,1.4,3.6,0.5c0.2-0.1,0.4-0.3,0.5-0.5c0.5-0.9,0.8-1.9,0.7-3c0.1-1-0.2-2-0.8-2.8c-0.5-0.7-1.2-1-2.1-1
		c-0.8,0-1.6,0.4-2,1C1335.4,195.8,1335.1,196.8,1335.2,197.9L1335.2,197.9z"/>
	<path class="st3" d="M1348,192v1.3c0.8-1,2.1-1.6,3.4-1.5c2.4,0,3.6,1.4,3.7,4.1v7.6h-2.6V196c0.1-0.6-0.1-1.2-0.5-1.7
		c-0.4-0.4-1-0.6-1.5-0.5c-1,0-1.9,0.5-2.3,1.4v8.2h-2.6v-11.6L1348,192z"/>
	<path class="st3" d="M1365.7,193.2c0.8-0.9,2-1.5,3.2-1.5c2.5,0,3.7,1.4,3.8,4.2v7.5h-2.6v-7.5c0.1-0.6-0.1-1.2-0.5-1.7
		c-0.4-0.4-1-0.5-1.5-0.5c-1,0-1.9,0.5-2.3,1.4v8.2h-2.6v-16.4h2.6L1365.7,193.2z"/>
	<path class="st3" d="M1375.3,188.9c0-0.7,0.5-1.4,1.3-1.4c0.1,0,0.1,0,0.2,0c0.4,0,0.8,0.1,1.1,0.4c0.3,0.3,0.4,0.6,0.4,1
		c0,0.4-0.1,0.7-0.4,1c-0.3,0.3-0.7,0.4-1.1,0.4c-0.4,0-0.8-0.1-1.1-0.4C1375.4,189.7,1375.3,189.3,1375.3,188.9z M1378,203.5h-2.6
		v-11.6h2.6V203.5z"/>
	<path class="st3" d="M1387.4,200.4c0-0.4-0.2-0.8-0.6-1.1c-0.6-0.3-1.2-0.5-1.9-0.6c-0.8-0.1-1.5-0.4-2.2-0.7
		c-1.2-0.4-1.9-1.5-1.9-2.7c0-1,0.5-1.9,1.2-2.5c0.9-0.7,2.1-1,3.2-1c1.2-0.1,2.4,0.3,3.4,1c0.8,0.6,1.3,1.6,1.3,2.7h-2.6
		c0-0.5-0.2-0.9-0.6-1.2c-0.4-0.3-0.9-0.5-1.5-0.5c-0.5,0-1,0.1-1.4,0.4c-0.4,0.2-0.6,0.6-0.5,1.1c0,0.4,0.2,0.7,0.5,0.9
		c0.6,0.3,1.3,0.5,2,0.7c0.8,0.2,1.6,0.4,2.4,0.8c0.5,0.3,1,0.6,1.3,1.1c0.3,0.5,0.4,1,0.4,1.6c0,1-0.5,2-1.3,2.5
		c-1,0.7-2.2,1-3.4,1c-0.9,0-1.7-0.2-2.5-0.5c-0.7-0.3-1.3-0.8-1.7-1.4c-0.4-0.6-0.6-1.2-0.6-1.9h2.5c0,0.6,0.3,1.1,0.7,1.4
		c0.5,0.3,1.1,0.5,1.7,0.5c0.5,0,1.1-0.1,1.5-0.4C1387.2,201.2,1387.4,200.8,1387.4,200.4z"/>
	<path class="st3" d="M1404.5,203.5h-2.6V191l-3.8,1.3v-2.2l6.1-2.2h0.3V203.5z"/>
	<path class="st3" d="M1420.1,197c0.1,1.8-0.3,3.5-1.2,5.1c-1.9,2.1-5.2,2.3-7.3,0.3c-0.1-0.1-0.2-0.2-0.3-0.3
		c-1-1.5-1.4-3.2-1.3-4.9v-2.7c-0.1-1.8,0.3-3.5,1.3-5.1c0.9-1.2,2.3-1.8,3.8-1.7c1.5-0.1,2.9,0.5,3.8,1.7c0.9,1.5,1.4,3.2,1.3,4.9
		V197z M1417.5,194.1c0.1-1.1-0.1-2.2-0.6-3.2c-0.4-0.7-1.1-1.1-1.9-1c-0.8,0-1.5,0.3-1.9,1c-0.5,0.9-0.7,2-0.6,3v3.5
		c-0.1,1.1,0.1,2.2,0.6,3.2c0.4,0.7,1.1,1.1,1.9,1.1c0.8,0,1.5-0.3,1.8-1c0.5-1,0.7-2,0.6-3.1L1417.5,194.1z"/>
	<path class="st3" d="M1432.5,197c0.1,1.8-0.3,3.5-1.3,5.1c-0.9,1.2-2.3,1.8-3.8,1.7c-1.5,0.1-2.9-0.5-3.8-1.7
		c-1-1.5-1.4-3.2-1.3-4.9v-2.7c-0.1-1.8,0.3-3.5,1.3-5.1c0.9-1.2,2.3-1.8,3.8-1.7c1.5-0.1,2.9,0.5,3.8,1.7c0.9,1.5,1.4,3.2,1.3,4.9
		V197z M1429.9,194.1c0.1-1.1-0.1-2.2-0.6-3.2c-0.4-0.7-1.1-1.1-1.9-1c-0.8,0-1.5,0.3-1.9,1c-0.5,0.9-0.7,2-0.6,3v3.5
		c-0.1,1.1,0.1,2.2,0.6,3.2c0.4,0.7,1.1,1.1,1.9,1.1c0.8,0,1.5-0.3,1.8-1c0.5-1,0.7-2,0.6-3.1L1429.9,194.1z"/>
	<path class="st3" d="M1438.2,189.2v2.8h2v1.9h-2v6.4c0,0.3,0.1,0.7,0.3,1c0.3,0.2,0.6,0.3,0.9,0.3c0.3,0,0.6,0,0.9-0.1v2
		c-0.5,0.2-1.1,0.2-1.7,0.3c-2,0-3-1.1-3-3.4v-6.5h-1.9v-1.9h1.9v-2.8L1438.2,189.2z"/>
	<path class="st3" d="M1444.8,193.2c0.8-1,2-1.5,3.2-1.5c2.5,0,3.7,1.4,3.8,4.2v7.5h-2.6v-7.5c0.1-0.6-0.1-1.2-0.5-1.7
		c-0.4-0.4-1-0.5-1.5-0.5c-1,0-1.9,0.5-2.3,1.4v8.2h-2.6v-16.4h2.6V193.2z"/>
	<path class="st3" d="M1470,197.9c0.1,1.5-0.3,3-1.2,4.3c-0.8,1.1-2,1.7-3.4,1.6c-1.2,0.1-2.4-0.5-3.2-1.5l-0.1,1.2h-2.3v-16.4h2.6
		v6c0.8-0.9,1.9-1.4,3-1.3c1.3-0.1,2.6,0.5,3.4,1.6c0.9,1.3,1.3,2.8,1.2,4.4L1470,197.9z M1467.4,197.6c0.1-1-0.2-2-0.7-2.8
		c-0.4-0.6-1.2-1-1.9-0.9c-1-0.1-2,0.5-2.4,1.5v4.8c0.4,1,1.4,1.6,2.4,1.5c0.7,0,1.5-0.3,1.9-0.9c0.5-0.8,0.7-1.8,0.7-2.7
		L1467.4,197.6z"/>
	<path class="st3" d="M1472.2,188.9c0-0.7,0.5-1.4,1.3-1.4c0.1,0,0.1,0,0.2,0c0.4,0,0.8,0.1,1.1,0.4c0.3,0.3,0.4,0.6,0.4,1
		c0,0.4-0.1,0.7-0.4,1c-0.3,0.3-0.7,0.4-1.1,0.4c-0.4,0-0.8-0.1-1.1-0.4C1472.3,189.7,1472.2,189.3,1472.2,188.9z M1474.9,203.5
		h-2.6v-11.6h2.6V203.5z"/>
	<path class="st3" d="M1483.8,194.3c-0.4,0-0.7,0-1.1,0c-1-0.1-2,0.5-2.4,1.4v7.9h-2.6V192h2.5v1.3c0.5-0.9,1.5-1.5,2.6-1.5
		c0.3,0,0.6,0,0.9,0.2L1483.8,194.3z"/>
	<path class="st3" d="M1489.2,189.2v2.8h2v1.9h-2v6.4c0,0.3,0.1,0.7,0.3,1c0.3,0.2,0.6,0.3,0.9,0.3c0.3,0,0.6,0,0.9-0.1v2
		c-0.5,0.2-1.1,0.2-1.7,0.3c-2,0-3-1.1-3-3.4v-6.5h-2v-1.9h1.9v-2.8L1489.2,189.2z"/>
	<path class="st3" d="M1495.8,193.2c0.8-1,2-1.5,3.2-1.5c2.5,0,3.7,1.4,3.8,4.2v7.5h-2.6v-7.5c0.1-0.6-0.1-1.2-0.5-1.7
		c-0.4-0.4-1-0.5-1.5-0.5c-1,0-1.9,0.5-2.3,1.4v8.2h-2.6v-16.4h2.6V193.2z"/>
	<path class="st3" d="M1517.8,203.5c-0.2-0.3-0.3-0.7-0.3-1.1c-0.8,0.8-1.9,1.3-3,1.3c-1,0-2.1-0.3-2.8-1c-0.7-0.6-1.1-1.5-1.1-2.5
		c0-1.1,0.5-2.2,1.4-2.8c1.2-0.7,2.5-1.1,3.9-1h1.6v-0.8c0-0.5-0.2-1-0.5-1.4c-0.4-0.4-1-0.6-1.5-0.5c-0.5,0-1,0.1-1.4,0.5
		c-0.4,0.3-0.6,0.7-0.6,1.1h-2.6c0-0.6,0.2-1.3,0.6-1.8c0.4-0.6,1-1,1.7-1.3c0.8-0.3,1.6-0.5,2.4-0.5c1.2-0.1,2.3,0.3,3.2,1
		c0.9,0.7,1.3,1.8,1.3,2.9v5.2c0,0.8,0.1,1.7,0.4,2.5v0.2L1517.8,203.5z M1514.9,201.7c0.5,0,1-0.1,1.4-0.4c0.4-0.2,0.8-0.6,1-1
		v-2.2h-1.4c-0.8-0.1-1.5,0.1-2.2,0.5c-0.5,0.3-0.7,0.9-0.7,1.4c0,0.5,0.2,0.9,0.5,1.2C1514,201.5,1514.5,201.7,1514.9,201.7
		L1514.9,201.7z"/>
	<path class="st3" d="M1525.1,192v1.3c0.8-1,2.1-1.6,3.4-1.5c2.4,0,3.6,1.4,3.7,4.1v7.6h-2.5V196c0.1-0.6-0.1-1.2-0.5-1.7
		c-0.4-0.4-1-0.6-1.5-0.5c-1,0-1.9,0.5-2.3,1.4v8.2h-2.6v-11.6L1525.1,192z"/>
	<path class="st3" d="M1537.3,192v1.3c0.8-1,2.1-1.6,3.4-1.5c2.4,0,3.6,1.4,3.7,4.1v7.6h-2.6V196c0.1-0.6-0.1-1.2-0.5-1.7
		c-0.4-0.4-1-0.6-1.5-0.5c-1,0-1.9,0.5-2.3,1.4v8.2h-2.6v-11.6L1537.3,192z"/>
	<path class="st3" d="M1547.1,188.9c0-0.7,0.5-1.4,1.3-1.4c0.1,0,0.1,0,0.2,0c0.4,0,0.8,0.1,1.1,0.4c0.3,0.3,0.4,0.6,0.4,1
		c0,0.4-0.1,0.7-0.4,1c-0.3,0.3-0.7,0.4-1.1,0.4c-0.4,0-0.8-0.1-1.1-0.4C1547.2,189.7,1547,189.3,1547.1,188.9z M1549.8,203.5h-2.6
		v-11.6h2.6V203.5z"/>
	<path class="st3" d="M1556.7,200.2l2.4-8.3h2.7l-4,11.6h-2.3l-4-11.6h2.7L1556.7,200.2z"/>
	<path class="st3" d="M1568.4,203.7c-1.5,0.1-2.9-0.5-4-1.5c-1.1-1.1-1.6-2.6-1.5-4.1v-0.3c0-1.1,0.2-2.1,0.7-3.1
		c0.8-1.8,2.6-2.9,4.6-2.9c1.4-0.1,2.7,0.5,3.7,1.5c0.9,1.2,1.4,2.7,1.3,4.3v1h-7.6c0,0.8,0.4,1.7,1,2.3c0.6,0.6,1.3,0.9,2.1,0.8
		c1.1,0,2.2-0.5,2.9-1.4l1.4,1.3c-0.5,0.7-1.1,1.3-1.9,1.7C1570.2,203.6,1569.3,203.8,1568.4,203.7z M1568.1,193.8
		c-0.6,0-1.3,0.3-1.7,0.7c-0.5,0.6-0.8,1.3-0.8,2.1h4.9v-0.2c0-0.7-0.2-1.4-0.7-2C1569.4,194,1568.8,193.8,1568.1,193.8z"/>
	<path class="st3" d="M1581.1,194.3c-0.4,0-0.7,0-1.1,0c-1-0.1-2,0.5-2.4,1.4v7.9h-2.6V192h2.5v1.3c0.5-0.9,1.5-1.5,2.6-1.5
		c0.3,0,0.6,0,0.9,0.2L1581.1,194.3z"/>
	<path class="st3" d="M1589.2,200.4c0-0.4-0.2-0.8-0.6-1.1c-0.6-0.3-1.2-0.5-1.9-0.6c-0.8-0.1-1.5-0.4-2.2-0.7
		c-1.2-0.4-1.9-1.5-1.9-2.7c0-1,0.5-1.9,1.2-2.5c0.9-0.7,2.1-1,3.2-1c1.2-0.1,2.4,0.3,3.4,1c0.8,0.6,1.3,1.6,1.3,2.7h-2.7
		c0-0.5-0.2-0.9-0.6-1.2c-0.4-0.3-0.9-0.5-1.5-0.5c-0.5,0-1,0.1-1.4,0.4c-0.4,0.2-0.6,0.6-0.5,1.1c0,0.4,0.2,0.7,0.5,0.9
		c0.6,0.3,1.3,0.5,2,0.7c0.8,0.2,1.6,0.4,2.4,0.8c0.5,0.3,1,0.6,1.3,1.1c0.3,0.5,0.4,1,0.4,1.6c0,1-0.5,2-1.3,2.5
		c-1,0.7-2.2,1-3.4,1c-0.9,0-1.7-0.2-2.5-0.5c-0.7-0.3-1.3-0.8-1.7-1.4c-0.4-0.6-0.6-1.2-0.6-1.9h2.5c0,0.6,0.3,1.1,0.7,1.4
		c0.5,0.3,1.1,0.5,1.7,0.5c0.5,0,1.1-0.1,1.5-0.4C1589,201.2,1589.3,200.8,1589.2,200.4z"/>
	<path class="st3" d="M1601,203.5c-0.2-0.3-0.3-0.7-0.3-1.1c-1.6,1.6-4.1,1.7-5.9,0.3c-0.7-0.6-1.1-1.5-1.1-2.5
		c0-1.1,0.5-2.2,1.4-2.8c1.2-0.7,2.5-1.1,3.9-1h1.6v-0.8c0-0.5-0.2-1-0.5-1.4c-0.4-0.4-1-0.6-1.5-0.5c-0.5,0-1,0.1-1.4,0.5
		c-0.4,0.3-0.6,0.7-0.6,1.1h-2.6c0-0.6,0.2-1.3,0.6-1.8c0.4-0.6,1-1,1.7-1.3c0.8-0.3,1.6-0.5,2.4-0.5c1.2-0.1,2.3,0.3,3.2,1
		c0.8,0.7,1.3,1.8,1.2,2.9v5.2c0,0.8,0.1,1.7,0.4,2.5v0.2L1601,203.5z M1598.1,201.7c0.5,0,1-0.1,1.4-0.4c0.4-0.2,0.8-0.6,1-1v-2.2
		h-1.4c-0.8-0.1-1.5,0.1-2.2,0.5c-0.5,0.3-0.7,0.8-0.7,1.4c0,0.5,0.2,0.9,0.5,1.2C1597.1,201.5,1597.6,201.7,1598.1,201.7z"/>
	<path class="st3" d="M1612,194.3c-0.4,0-0.7,0-1.1,0c-1-0.1-2,0.5-2.4,1.4v7.9h-2.6V192h2.5v1.3c0.5-0.9,1.5-1.5,2.6-1.5
		c0.3,0,0.6,0,0.9,0.2L1612,194.3z"/>
	<path class="st3" d="M1617.8,199.8l2.4-7.8h2.8l-4.6,13.3c-0.4,1.7-1.9,2.9-3.6,2.9c-0.4,0-0.8-0.1-1.2-0.2v-2h0.5
		c0.5,0,1-0.1,1.5-0.4c0.4-0.3,0.6-0.7,0.8-1.2l0.4-1l-4.1-11.5h2.8L1617.8,199.8z"/>
	<path class="st3" d="M1624.3,200.7c0.8-0.1,1.4,0.5,1.5,1.3c0,0.1,0,0.1,0,0.2c0,0.4-0.1,0.7-0.4,1c-0.3,0.3-0.7,0.4-1.1,0.4
		c-0.4,0-0.8-0.1-1.1-0.4c-0.3-0.3-0.4-0.6-0.4-1c0-0.4,0.1-0.8,0.4-1C1623.5,200.8,1623.9,200.7,1624.3,200.7z"/>
</g>
</svg>
