<svg id="Layer_1" data-name="Layer 1" xmlns="http://www.w3.org/2000/svg" viewBox="0 0 426.55 185.31"><defs><style>.cls-1{fill:#fff;opacity:0.9;}.cls-2,.cls-22{font-size:11px;fill:#010101;}.cls-2{font-family:Avenir-Roman, Avenir Roman;}.cls-3{letter-spacing:0.01em;}.cls-4{letter-spacing:-0.01em;}.cls-5{letter-spacing:-0.01em;}.cls-6{letter-spacing:-0.01em;}.cls-7{letter-spacing:-0.01em;}.cls-8{letter-spacing:-0.04em;}.cls-9{letter-spacing:-0.01em;}.cls-10{letter-spacing:-0.02em;}.cls-11{letter-spacing:0em;}.cls-12{letter-spacing:-0.01em;}.cls-13{letter-spacing:-0.01em;}.cls-14{letter-spacing:-0.01em;}.cls-15{letter-spacing:-0.01em;}.cls-16{letter-spacing:0.02em;}.cls-17{letter-spacing:0em;}.cls-18{letter-spacing:-0.05em;}.cls-19{letter-spacing:0.02em;}.cls-20{letter-spacing:0em;}.cls-21{letter-spacing:0em;}.cls-22{font-family:Avenir-Medium, Avenir Medium;font-weight:500;}.cls-23{letter-spacing:0.02em;}.cls-24{letter-spacing:0.01em;}.cls-25{letter-spacing:0.02em;}</style></defs><title>massage</title><rect class="cls-1" width="426.55" height="185.31" rx="8.97"/><text class="cls-2" transform="translate(22.19 68.03)"><tspan class="cls-3">I</tspan><tspan x="2.74" y="0">f </tspan><tspan class="cls-4" x="8.28" y="0">y</tspan><tspan x="13.35" y="0">ou </tspan><tspan class="cls-4" x="27.79" y="0">w</tspan><tspan x="35.77" y="0">e</tspan><tspan class="cls-5" x="41.28" y="0">r</tspan><tspan x="44.77" y="0">e he</tspan><tspan class="cls-4" x="64.23" y="0">r</tspan><tspan x="67.71" y="0">e with us </tspan><tspan class="cls-6" x="111.05" y="0">t</tspan><tspan x="114.63" y="0">od</tspan><tspan class="cls-7" x="126.87" y="0">a</tspan><tspan class="cls-8" x="132.08" y="0">y</tspan><tspan x="136.83" y="0">, I </tspan><tspan class="cls-4" x="146.4" y="0">w</tspan><tspan x="154.39" y="0">ould h</tspan><tspan class="cls-7" x="183.73" y="0">a</tspan><tspan class="cls-4" x="188.94" y="0">v</tspan><tspan x="194.12" y="0">e </tspan><tspan class="cls-6" x="201.96" y="0">t</tspan><tspan x="205.54" y="0">ouched </tspan><tspan class="cls-4" x="242.72" y="0">y</tspan><tspan x="247.79" y="0">our </tspan><tspan class="cls-9" x="265.82" y="0">f</tspan><tspan x="268.88" y="0">eet and asked </tspan><tspan class="cls-9" x="334.68" y="0">f</tspan><tspan x="337.75" y="0">or a </tspan><tspan x="0" y="13.2">blessin</tspan><tspan class="cls-10" x="31.75" y="13.2">g</tspan><tspan x="37.74" y="13.2">, so th</tspan><tspan class="cls-11" x="64.82" y="13.2">a</tspan><tspan x="70.08" y="13.2">t I can make </tspan><tspan class="cls-4" x="127.15" y="13.2">y</tspan><tspan x="132.22" y="13.2">ou p</tspan><tspan class="cls-5" x="152.91" y="13.2">r</tspan><tspan x="156.4" y="13.2">oud </tspan><tspan class="cls-12" x="177.04" y="13.2">b</tspan><tspan x="183.22" y="13.2">y </tspan><tspan class="cls-5" x="190.73" y="13.2">r</tspan><tspan x="194.22" y="13.2">ep</tspan><tspan class="cls-4" x="205.99" y="13.2">r</tspan><tspan x="209.47" y="13.2">ese</tspan><tspan class="cls-11" x="224.85" y="13.2">n</tspan><tspan x="230.91" y="13.2">ting Bangladesh </tspan><tspan class="cls-13" x="307.63" y="13.2">t</tspan><tspan x="311.21" y="13.2">o the best of </tspan><tspan class="cls-9" x="370.85" y="13.2">m</tspan><tspan x="379.88" y="13.2">y </tspan><tspan x="0" y="26.4">abilitie</tspan><tspan class="cls-14" x="31.03" y="26.4">s</tspan><tspan x="35.27" y="26.4">. Hap</tspan><tspan class="cls-15" x="58.61" y="26.4">p</tspan><tspan x="64.79" y="26.4">y Bi</tspan><tspan class="cls-16" x="80.84" y="26.4">r</tspan><tspan x="84.7" y="26.4">thd</tspan><tspan class="cls-7" x="100.65" y="26.4">a</tspan><tspan x="105.86" y="26.4">y </tspan><tspan class="cls-17" x="113.37" y="26.4">M</tspan><tspan x="122.25" y="26.4">ujib Si</tspan><tspan class="cls-18" x="150.15" y="26.4">r</tspan><tspan x="153.16" y="26.4">, </tspan><tspan class="cls-19" x="157.77" y="26.4">k</tspan><tspan x="163.11" y="26.4">n</tspan><tspan class="cls-12" x="169.22" y="26.4">o</tspan><tspan x="175.18" y="26.4">w th</tspan><tspan class="cls-11" x="195.35" y="26.4">a</tspan><tspan x="200.61" y="26.4">t </tspan><tspan class="cls-5" x="206.58" y="26.4">y</tspan><tspan x="211.66" y="26.4">ou li</tspan><tspan class="cls-4" x="231.26" y="26.4">v</tspan><tspan x="236.44" y="26.4">e within each of us in spi</tspan><tspan class="cls-20" x="348.41" y="26.4">r</tspan><tspan x="352.05" y="26.4">i</tspan><tspan class="cls-21" x="354.63" y="26.4">t</tspan><tspan x="358.24" y="26.4">.</tspan></text><text class="cls-22" transform="translate(23.11 142.94)">- <tspan class="cls-23" x="5.71" y="0">K</tspan><tspan x="11.85" y="0">alam </tspan><tspan class="cls-24" x="36.55" y="0">M</tspan><tspan x="45.46" y="0">ahfuz, Dha</tspan><tspan class="cls-25" x="94.19" y="0">k</tspan><tspan x="99.55" y="0">a</tspan></text></svg>